<svg xmlns="http://www.w3.org/2000/svg" width="10.524" height="9.633" viewBox="0 0 10.524 9.633">
  <g id="battery" transform="translate(0 0)">
    <path id="Path_3164" data-name="Path 3164" d="M18,168.491h9.743v-4.327H18Zm5.85-2.472h2.175v.617H23.85Zm-3.312-.779h.617v.779h.779v.617h-.779v.779h-.617v-.779h-.779v-.617h.779Zm0,0" transform="translate(-17.63 -160.79)" fill="#8c37db"/>
    <path id="Path_3165" data-name="Path 3165" d="M10.524,2.758V1.428H10V0H7.87V1.428H6.883L6.891.3,3.644.276,3.636,1.428H2.653V0H.528V1.428H0v1.33Zm0,0" transform="translate(0 0)" fill="#8c37db"/>
    <path id="Path_3166" data-name="Path 3166" d="M0,404.664H10.524v1.315H0Zm0,0" transform="translate(0 -396.347)" fill="#8c37db"/>
  </g>
</svg>
