<svg xmlns="http://www.w3.org/2000/svg" width="15.921" height="22" viewBox="0 0 15.921 22">
  <g id="scooter-front-view" transform="translate(-80.325)">
    <g id="Layer_1_117_" transform="translate(80.325)">
      <g id="Group_1233" data-name="Group 1233" transform="translate(0)">
        <path id="Path_2390" data-name="Path 2390" d="M240.355,376.125a1.935,1.935,0,0,0-1.93,1.93v3.908a1.93,1.93,0,1,0,3.86,0v-3.908A1.935,1.935,0,0,0,240.355,376.125Z" transform="translate(-232.443 -361.893)" fill="#8c37db"/>
        <path id="Path_2391" data-name="Path 2391" d="M95.233,2.412H91.518a3.437,3.437,0,0,0-6.561,0H81.29a.965.965,0,0,0,0,1.93H85a3.332,3.332,0,0,0,1.5,1.93A6.325,6.325,0,0,0,81.965,12.3v5.066a1.606,1.606,0,0,0,1.592,1.592h1.3V16.21a3.425,3.425,0,0,1,6.851,0v2.75h1.3a1.606,1.606,0,0,0,1.592-1.592V12.351A6.281,6.281,0,0,0,90.071,6.32a3.332,3.332,0,0,0,1.5-1.93h3.715a.968.968,0,0,0,.965-.965A1.052,1.052,0,0,0,95.233,2.412Zm-7,2.943a1.93,1.93,0,1,1,1.93-1.93A1.876,1.876,0,0,1,88.237,5.355Z" transform="translate(-80.325)" fill="#8c37db"/>
      </g>
    </g>
  </g>
</svg>
