<svg xmlns="http://www.w3.org/2000/svg" width="21.849" height="17.639" viewBox="0 0 21.849 17.639">
  <g id="Group_2582" data-name="Group 2582" transform="translate(0 0.039)">
    <g id="Group_2575" data-name="Group 2575" transform="translate(4.054 1.135)">
      <g id="Group_2574" data-name="Group 2574">
        <path id="Path_2426" data-name="Path 2426" d="M17.039,2.8a7.239,7.239,0,1,0,7.239,7.239A7.221,7.221,0,0,0,17.039,2.8Zm0,12.741a5.5,5.5,0,1,1,5.5-5.5A5.526,5.526,0,0,1,17.039,15.541Z" transform="translate(-9.8 -2.8)" fill="#8c37db"/>
      </g>
    </g>
    <g id="Group_2577" data-name="Group 2577" transform="translate(7.281 4.362)">
      <g id="Group_2576" data-name="Group 2576">
        <path id="Path_2427" data-name="Path 2427" d="M21.613,10.6a4.013,4.013,0,1,0,4.013,4.013A4.016,4.016,0,0,0,21.613,10.6Z" transform="translate(-17.6 -10.6)" fill="#8c37db"/>
      </g>
    </g>
    <g id="Group_2579" data-name="Group 2579" transform="translate(19.402 -0.039)">
      <g id="Group_2578" data-name="Group 2578">
        <path id="Path_2428" data-name="Path 2428" d="M48.927,9V.184A.227.227,0,0,0,48.8-.023.151.151,0,0,0,48.6.06a8.247,8.247,0,0,0-1.7,5.047V8.333A.653.653,0,0,0,47.562,9h.29c-.29,2.813-.5,6.784-.5,7.281,0,.745.455,1.324.993,1.324s.993-.579.993-1.324C49.382,15.78,49.217,11.808,48.927,9Z" transform="translate(-46.9 0.039)" fill="#8c37db"/>
      </g>
    </g>
    <g id="Group_2581" data-name="Group 2581" transform="translate(0 0.763)">
      <g id="Group_2580" data-name="Group 2580">
        <path id="Path_2429" data-name="Path 2429" d="M2.937,8.395a1.948,1.948,0,0,0,.91-1.655L3.6,2.19a.32.32,0,0,0-.331-.29.326.326,0,0,0-.331.331L3.1,5.871a.372.372,0,0,1-.745,0l-.083-3.64A.338.338,0,0,0,1.9,1.9a.4.4,0,0,0-.372.331l-.083,3.64a.372.372,0,0,1-.745,0l.165-3.64A.3.3,0,0,0,.538,1.9a.277.277,0,0,0-.248.29L0,6.74A1.948,1.948,0,0,0,.91,8.395a1.066,1.066,0,0,1,.538,1.034C1.117,12.283.91,16.875.91,17.413c0,.745.455,1.324.993,1.324s.993-.579.993-1.324c0-.5-.207-5.13-.538-7.984A1.179,1.179,0,0,1,2.937,8.395Z" transform="translate(0 -1.9)" fill="#8c37db"/>
      </g>
    </g>
  </g>
</svg>
