<svg xmlns="http://www.w3.org/2000/svg" width="15.638" height="15.638" viewBox="0 0 15.638 15.638">
  <g id="square" transform="translate(0)">
    <path id="Path_3178" data-name="Path 3178" d="M231.7,1.564h-1.043A.261.261,0,0,1,230.4,1.3V.261A.261.261,0,0,1,230.659,0H231.7a.261.261,0,0,1,.261.261V1.3A.261.261,0,0,1,231.7,1.564Zm-.782-.521h.521V.521h-.521Zm0,0" transform="translate(-223.361 0)" fill="#8c37db"/>
    <path id="Path_3179" data-name="Path 3179" d="M342.635,112.5h-1.043a.261.261,0,0,1-.261-.261v-1.043a.261.261,0,0,1,.261-.261h1.043a.261.261,0,0,1,.261.261v1.043A.261.261,0,0,1,342.635,112.5Zm-.782-.521h.521v-.521h-.521Zm0,0" transform="translate(-330.907 -107.546)" fill="#8c37db"/>
    <path id="Path_3180" data-name="Path 3180" d="M120.768,112.5h-1.043a.261.261,0,0,1-.261-.261v-1.043a.261.261,0,0,1,.261-.261h1.043a.261.261,0,0,1,.261.261v1.043A.261.261,0,0,1,120.768,112.5Zm-.782-.521h.521v-.521h-.521Zm0,0" transform="translate(-115.816 -107.546)" fill="#8c37db"/>
    <path id="Path_3181" data-name="Path 3181" d="M351.17,342.9h-1.043a.261.261,0,0,1-.261-.261v-1.043a.261.261,0,0,1,.261-.261h1.043a.261.261,0,0,1,.261.261v1.043A.261.261,0,0,1,351.17,342.9Zm-.782-.521h.521v-.521h-.521Zm0,0" transform="translate(-339.181 -330.906)" fill="#8c37db"/>
    <path id="Path_3182" data-name="Path 3182" d="M120.768,351.431h-1.043a.261.261,0,0,1-.261-.261v-1.043a.261.261,0,0,1,.261-.261h1.043a.261.261,0,0,1,.261.261v1.043A.261.261,0,0,1,120.768,351.431Zm-.782-.521h.521v-.521h-.521Zm0,0" transform="translate(-115.816 -339.181)" fill="#8c37db"/>
    <path id="Path_3183" data-name="Path 3183" d="M462.1,231.963h-1.043a.261.261,0,0,1-.261-.261V230.66a.261.261,0,0,1,.261-.261H462.1a.261.261,0,0,1,.261.261V231.7A.261.261,0,0,1,462.1,231.963Zm-.782-.521h.521v-.521h-.521Zm0,0" transform="translate(-446.727 -223.362)" fill="#8c37db"/>
    <path id="Path_3184" data-name="Path 3184" d="M1.3,231.963H.261A.261.261,0,0,1,0,231.7V230.66a.261.261,0,0,1,.261-.261H1.3a.261.261,0,0,1,.261.261V231.7A.261.261,0,0,1,1.3,231.963Zm-.782-.521h.521v-.521H.521Zm0,0" transform="translate(0 -223.362)" fill="#8c37db"/>
    <path id="Path_3185" data-name="Path 3185" d="M231.7,462.365h-1.043a.261.261,0,0,1-.261-.261v-1.042a.261.261,0,0,1,.261-.261H231.7a.261.261,0,0,1,.261.261V462.1A.261.261,0,0,1,231.7,462.365Zm-.782-.521h.521v-.521h-.521Zm0,0" transform="translate(-223.361 -446.726)" fill="#8c37db"/>
    <path id="Path_3186" data-name="Path 3186" d="M41.43,47.686H40.388a.261.261,0,0,1-.184-.076l-2.346-2.346a.26.26,0,0,1-.076-.184V44.3H37a.26.26,0,0,1-.184-.076l-2.606-2.606a.261.261,0,0,1-.076-.184V40.388a.26.26,0,0,1,.076-.184L36.815,37.6A.26.26,0,0,1,37,37.521h.782v-.782a.259.259,0,0,1,.076-.184L40.2,34.209a.261.261,0,0,1,.184-.076H41.43a.261.261,0,0,1,.184.076l2.346,2.346a.26.26,0,0,1,.076.184v.782h.782A.26.26,0,0,1,45,37.6L47.609,40.2a.261.261,0,0,1,.076.184V41.43a.26.26,0,0,1-.076.184L45.263,43.96a.26.26,0,0,1-.184.076H44.3v.782a.259.259,0,0,1-.076.184l-2.606,2.606A.261.261,0,0,1,41.43,47.686Zm-.935-.521h.826l2.454-2.454v-.935a.261.261,0,0,1,.261-.261h.935l2.193-2.193V40.5L44.71,38.042h-.935a.261.261,0,0,1-.261-.261v-.935l-2.193-2.193H40.5L38.3,36.847v.935a.26.26,0,0,1-.261.261h-.934L34.653,40.5v.827l2.454,2.454h.934a.26.26,0,0,1,.261.261v.935Zm0,0" transform="translate(-33.09 -33.09)" fill="#8c37db"/>
  </g>
</svg>
