<svg xmlns="http://www.w3.org/2000/svg" viewBox="0 0 24.195 22.683">
  <g id="school-bus-front" transform="translate(0 -2.386)">
    <path id="Path_3226" data-name="Path 3226" d="M.756,8.434h.756V12.97H.756A.755.755,0,0,1,0,12.214V9.19A.757.757,0,0,1,.756,8.434Zm22.683,0h-.757V12.97h.757a.755.755,0,0,0,.756-.756V9.19A.757.757,0,0,0,23.439,8.434ZM21.171,6.922v13.61a1.511,1.511,0,0,1-1.512,1.512v1.512a1.511,1.511,0,0,1-1.512,1.512H16.634a1.512,1.512,0,0,1-1.512-1.512V22.044H9.073v1.512a1.511,1.511,0,0,1-1.512,1.512H6.05a1.512,1.512,0,0,1-1.512-1.512V22.044a1.512,1.512,0,0,1-1.512-1.512V6.922A4.537,4.537,0,0,1,7.561,2.386h9.073A4.537,4.537,0,0,1,21.171,6.922ZM9.073,5.41h6.049V3.9H9.073ZM7.561,19.02A1.512,1.512,0,1,0,6.05,20.533,1.51,1.51,0,0,0,7.561,19.02Zm12.1,0a1.512,1.512,0,1,0-1.512,1.512A1.51,1.51,0,0,0,19.659,19.02Zm0-12.1H4.537V16H19.659V6.922Z"/>
  </g>
</svg>
