<svg xmlns="http://www.w3.org/2000/svg" viewBox="0 0 20.96 18.301">
  <defs>
    <style>
      .cls-1 {
        fill: #464646;
      }
    </style>
  </defs>
  <g id="shop" transform="translate(0 -31.05)">
    <g id="Group_4247" data-name="Group 4247" transform="translate(0 31.05)">
      <path id="Path_3187" data-name="Path 3187" class="cls-1" d="M252.461,263.75h-2.848a1.415,1.415,0,0,0-1.413,1.413v2.184a1.415,1.415,0,0,0,1.413,1.413h2.848a1.415,1.415,0,0,0,1.413-1.413v-2.184A1.415,1.415,0,0,0,252.461,263.75Zm.385,3.6a.387.387,0,0,1-.385.385h-2.848a.387.387,0,0,1-.385-.385v-2.184a.387.387,0,0,1,.385-.385h2.848a.387.387,0,0,1,.385.385Z" transform="translate(-237.57 -253.784)"/>
      <path id="Path_3188" data-name="Path 3188" class="cls-1" d="M20.96,37.046a.477.477,0,0,0-.069-.253l-3.118-5.482a.517.517,0,0,0-.445-.261H3.628a.508.508,0,0,0-.445.261L.069,36.793A.52.52,0,0,0,0,37.046,3.006,3.006,0,0,0,1.8,39.8v9.041a.515.515,0,0,0,.514.514h16.33a.515.515,0,0,0,.514-.514V39.86a.226.226,0,0,0,0-.056A3.015,3.015,0,0,0,20.96,37.046ZM3.927,32.082h13.1l2.437,4.287H1.495Zm10.99,5.311a1.975,1.975,0,0,1-3.889,0Zm-4.981,0a1.978,1.978,0,0,1-3.893,0Zm-8.874,0H4.955a1.978,1.978,0,0,1-3.893,0Zm7.572,10.93H5.679V42.776a.732.732,0,0,1,.732-.732H7.906a.732.732,0,0,1,.732.732v5.546Zm9.5,0H9.662V42.776a1.763,1.763,0,0,0-1.76-1.76H6.407a1.763,1.763,0,0,0-1.76,1.76v5.551H2.827V40.048c.06,0,.12,0,.18,0A3,3,0,0,0,5.5,38.725a3,3,0,0,0,4.985,0,3,3,0,0,0,4.977,0,3,3,0,0,0,2.493,1.328c.06,0,.116,0,.176,0v8.274Zm-.176-9.3A1.974,1.974,0,0,1,16.009,37.4H19.9A1.986,1.986,0,0,1,17.954,39.025Z" transform="translate(0 -31.05)"/>
    </g>
  </g>
</svg>
