<svg xmlns="http://www.w3.org/2000/svg" viewBox="0 0 24 22.004">
  <defs>
    <style>
      .cls-1 {
        fill: #464646;
      }
    </style>
  </defs>
  <g id="Group_2571" data-name="Group 2571" transform="translate(0 0)">
    <path id="Path_2425" data-name="Path 2425" class="cls-1" d="M6.6,5.381A3.081,3.081,0,1,1,9.678,8.463,3.093,3.093,0,0,1,6.6,5.381Zm4.557,5.165A3.438,3.438,0,0,1,11.8,8.723a5.252,5.252,0,0,0-.825-.043h-2.6a5.317,5.317,0,0,0-.825.087A3.4,3.4,0,0,1,8.2,10.72a3.417,3.417,0,0,1,1.606-.434A3.537,3.537,0,0,1,11.154,10.546Zm.521.3a3.55,3.55,0,0,1,1.649,2.6,2.772,2.772,0,0,0,1.215.26,2.821,2.821,0,1,0,0-5.642A2.763,2.763,0,0,0,11.675,10.85ZM9.808,16.665a2.821,2.821,0,1,0-2.821-2.821A2.815,2.815,0,0,0,9.808,16.665Zm1.215.174H8.637a3.668,3.668,0,0,0-3.646,3.646v2.995l.217.043a16.08,16.08,0,0,0,4.948.781,9.823,9.823,0,0,0,4.3-.825l.174-.087h0V20.441A3.593,3.593,0,0,0,11.024,16.839Zm4.687-2.951H13.324a3.52,3.52,0,0,1-1.085,2.43,4.3,4.3,0,0,1,3.081,4.123v.911a10.219,10.219,0,0,0,3.819-.781l.174-.087h0V17.533A3.6,3.6,0,0,0,15.711,13.888Zm.651-5.9a3.55,3.55,0,0,1,1.649,2.6,2.772,2.772,0,0,0,1.215.26,2.821,2.821,0,1,0-2.864-2.864ZM20.4,11.067H18.011a3.52,3.52,0,0,1-1.085,2.43,4.3,4.3,0,0,1,3.081,4.123v.911a10.219,10.219,0,0,0,3.819-.781L24,17.663h0V14.712A3.6,3.6,0,0,0,20.4,11.067ZM4.817,13.714a2.959,2.959,0,0,0,1.519-.434,3.541,3.541,0,0,1,1.3-2.257V10.85a2.821,2.821,0,1,0-2.821,2.864Zm2.561,2.647a3.52,3.52,0,0,1-1.085-2.43H3.646A3.6,3.6,0,0,0,0,17.533v2.995l.217.043a18.026,18.026,0,0,0,4.08.781v-.868A4.3,4.3,0,0,1,7.378,16.361Z" transform="translate(0 -2.3)"/>
  </g>
</svg>
