<svg id="Group_4399" data-name="Group 4399" xmlns="http://www.w3.org/2000/svg" viewBox="0 0 21.248 19.7">
  <defs>
    <style>
      .cls-1 {
        fill: #272727;
      }
    </style>
  </defs>
  <g id="Group_2592" data-name="Group 2592">
    <g id="Group_2591" data-name="Group 2591">
      <path id="Path_2434" data-name="Path 2434" class="cls-1" d="M26.012,9.1H22.087a1.1,1.1,0,0,0-1.1,1.1v2.825H18.161a1.1,1.1,0,0,0-1.1,1.1v2.825H14.236a1.1,1.1,0,0,0-1.1,1.1v2.935H10.2a1.128,1.128,0,0,0-1.1,1.1v2.274a1.1,1.1,0,0,0,1.1,1.1H25.9a1.1,1.1,0,0,0,1.1-1.1V10.2A.975.975,0,0,0,26.012,9.1Z" transform="translate(-5.762 -5.762)"/>
      <path id="Path_2435" data-name="Path 2435" class="cls-1" d="M14.527.22A.709.709,0,0,0,13.5.22C8.878,4.732,4.476,9.135.22,13.39A.724.724,0,0,0,0,13.9v4.953a.734.734,0,1,0,1.467,0V14.2c4.182-4.182,8.511-8.511,13.06-12.95A.709.709,0,0,0,14.527.22Z"/>
    </g>
  </g>
</svg>
