<svg id="square" xmlns="http://www.w3.org/2000/svg" viewBox="0 0 22.416 22.416">
  <defs>
    <style>
      .cls-1 {
        fill: #272727;
      }
    </style>
  </defs>
  <path id="Path_3178" data-name="Path 3178" class="cls-1" d="M232.266,2.242h-1.494a.373.373,0,0,1-.374-.374V.374A.374.374,0,0,1,230.772,0h1.494a.374.374,0,0,1,.374.374V1.868A.373.373,0,0,1,232.266,2.242Zm-1.121-.747h.747V.747h-.747Zm0,0" transform="translate(-220.311 0)"/>
  <path id="Path_3179" data-name="Path 3179" class="cls-1" d="M343.2,113.175h-1.494a.374.374,0,0,1-.374-.374v-1.495a.373.373,0,0,1,.374-.374H343.2a.373.373,0,0,1,.374.374V112.8A.373.373,0,0,1,343.2,113.175Zm-1.121-.747h.747v-.747h-.747Zm0,0" transform="translate(-326.388 -106.077)"/>
  <path id="Path_3180" data-name="Path 3180" class="cls-1" d="M121.333,113.175h-1.494a.374.374,0,0,1-.374-.374v-1.495a.373.373,0,0,1,.374-.374h1.494a.373.373,0,0,1,.374.374V112.8A.373.373,0,0,1,121.333,113.175Zm-1.121-.747h.747v-.747h-.747Zm0,0" transform="translate(-114.235 -106.077)"/>
  <path id="Path_3181" data-name="Path 3181" class="cls-1" d="M351.735,343.574h-1.495a.374.374,0,0,1-.374-.374v-1.494a.374.374,0,0,1,.374-.374h1.495a.374.374,0,0,1,.374.374V343.2A.374.374,0,0,1,351.735,343.574Zm-1.121-.747h.747v-.747h-.747Zm0,0" transform="translate(-334.549 -326.388)"/>
  <path id="Path_3182" data-name="Path 3182" class="cls-1" d="M121.333,352.108h-1.494a.373.373,0,0,1-.374-.373V350.24a.374.374,0,0,1,.374-.374h1.494a.373.373,0,0,1,.374.374v1.495A.373.373,0,0,1,121.333,352.108Zm-1.121-.747h.747v-.747h-.747Zm0,0" transform="translate(-114.235 -334.549)"/>
  <path id="Path_3183" data-name="Path 3183" class="cls-1" d="M462.669,232.641h-1.494a.373.373,0,0,1-.373-.374v-1.494a.373.373,0,0,1,.373-.374h1.494a.374.374,0,0,1,.374.374v1.494A.374.374,0,0,1,462.669,232.641Zm-1.121-.747h.747v-.747h-.747Zm0,0" transform="translate(-440.627 -220.312)"/>
  <path id="Path_3184" data-name="Path 3184" class="cls-1" d="M1.868,232.641H.374A.374.374,0,0,1,0,232.267v-1.494a.374.374,0,0,1,.374-.374H1.868a.373.373,0,0,1,.374.374v1.494A.373.373,0,0,1,1.868,232.641Zm-1.121-.747h.747v-.747H.747Zm0,0" transform="translate(0 -220.312)"/>
  <path id="Path_3185" data-name="Path 3185" class="cls-1" d="M232.266,463.042h-1.494a.374.374,0,0,1-.374-.374v-1.494a.374.374,0,0,1,.374-.374h1.494a.374.374,0,0,1,.374.374v1.494A.374.374,0,0,1,232.266,463.042Zm-1.121-.747h.747v-.747h-.747Zm0,0" transform="translate(-220.311 -440.626)"/>
  <path id="Path_3186" data-name="Path 3186" class="cls-1" d="M44.593,53.56H43.1a.373.373,0,0,1-.264-.109l-3.362-3.362a.372.372,0,0,1-.109-.264V48.7H38.242a.372.372,0,0,1-.264-.109l-3.736-3.736a.373.373,0,0,1-.109-.264V43.1a.373.373,0,0,1,.109-.264L37.978,39.1a.373.373,0,0,1,.264-.109h1.121V37.869a.372.372,0,0,1,.109-.264l3.362-3.362a.374.374,0,0,1,.264-.109h1.494a.373.373,0,0,1,.264.109L48.22,37.6a.372.372,0,0,1,.109.264v1.121H49.45a.372.372,0,0,1,.264.109l3.736,3.736a.373.373,0,0,1,.109.264v1.494a.373.373,0,0,1-.109.264L50.088,48.22a.373.373,0,0,1-.264.109H48.7V49.45a.371.371,0,0,1-.109.264L44.857,53.45A.374.374,0,0,1,44.593,53.56Zm-1.34-.747h1.185L47.955,49.3v-1.34a.373.373,0,0,1,.374-.374h1.34l3.144-3.143V43.254l-3.517-3.517h-1.34a.373.373,0,0,1-.374-.374v-1.34L44.438,34.88H43.253L40.11,38.023v1.34a.373.373,0,0,1-.374.374H38.4l-3.517,3.517v1.185L38.4,47.956h1.339a.373.373,0,0,1,.374.374v1.34Zm0,0" transform="translate(-32.638 -32.638)"/>
</svg>
