<svg id="Group_4398" data-name="Group 4398" xmlns="http://www.w3.org/2000/svg" viewBox="0 0 22.272 15.7">
  <defs>
    <style>
      .cls-1 {
        fill: #272727;
      }
    </style>
  </defs>
  <path id="Path_2430" data-name="Path 2430" class="cls-1" d="M19.917,4.99a9.487,9.487,0,0,0-6.369-2.88V1.3h1.1V0H11.114V1.3h1.1v.771A9.89,9.89,0,0,0,5.88,4.99,9.685,9.685,0,0,0,3,11.562H22.838A9.916,9.916,0,0,0,19.917,4.99ZM6.367,10.1l-1.3-.2A5.963,5.963,0,0,1,6.813,6.532l.852.974A5.458,5.458,0,0,0,6.367,10.1Z" transform="translate(-1.783)"/>
  <path id="Path_2431" data-name="Path 2431" class="cls-1" d="M0,31.8v.162A2.632,2.632,0,0,0,2.637,34.6h17a2.632,2.632,0,0,0,2.637-2.637V31.8Z" transform="translate(0 -18.899)"/>
</svg>
