<svg xmlns="http://www.w3.org/2000/svg" viewBox="0 0 21.487 29.636">
  <defs>
    <style>
      .cls-1 {
        fill: #010002;
      }
    </style>
  </defs>
  <g id="train-on-railroad" transform="translate(-67.5)">
    <g id="Group_4444" data-name="Group 4444" transform="translate(67.5)">
      <path id="Path_3227" data-name="Path 3227" class="cls-1" d="M84.461,22.755l-.06-.121q0-.06.03-.06t.03-.06a6.722,6.722,0,0,0,1.75-.966A3.125,3.125,0,0,0,87.3,19.8l.03-.211a2.24,2.24,0,0,1,.091-.392V3.44a2.485,2.485,0,0,0-.332-1.207,4.4,4.4,0,0,0-.845-1.086A5.155,5.155,0,0,0,85.094.332,2.559,2.559,0,0,0,83.917,0H72.63a2.758,2.758,0,0,0-1.177.3,4.464,4.464,0,0,0-1.147.785,4.389,4.389,0,0,0-.845,1.086A2.388,2.388,0,0,0,69.13,3.32V19.314a2.13,2.13,0,0,0,.181.845,3.776,3.776,0,0,0,.483.815,5.672,5.672,0,0,0,.664.724,3.206,3.206,0,0,0,.724.513q.181.06.573.211t.392.211l-4.648,7h2.716l3.38-4.889h9.3l3.38,4.889h2.716ZM75.588,1.388a.567.567,0,0,1,.151-.362.432.432,0,0,1,.332-.181h4.346a.622.622,0,0,1,.241.121q.181.121.181.241V2.9a.372.372,0,0,1-.151.3.456.456,0,0,1-.272.121H76.071A.7.7,0,0,1,75.89,3.2a.4.4,0,0,1-.181-.181.349.349,0,0,1-.121-.241ZM71.242,5.975a2.115,2.115,0,0,1,.121-.664,5.421,5.421,0,0,1,.423-.6,1.562,1.562,0,0,1,.513-.423,1.43,1.43,0,0,1,.694-.181h10.5a1.423,1.423,0,0,1,.6.181,3.161,3.161,0,0,1,.543.362A1.1,1.1,0,0,1,85,5.13a.978.978,0,0,1,.181.6V9.3A1.017,1.017,0,0,1,85,9.868a3.365,3.365,0,0,1-.423.513,2.4,2.4,0,0,1-.6.362,1.344,1.344,0,0,1-.6.121H73.053a.826.826,0,0,1-.181-.03.382.382,0,0,1-.181-.091,1.488,1.488,0,0,1-1.026-.573,1.72,1.72,0,0,1-.423-1.117Zm3.108,13.943a1.708,1.708,0,0,1-1.3.543,1.615,1.615,0,0,1-1.268-.543A1.928,1.928,0,0,1,71.3,18.59a1.752,1.752,0,0,1,1.75-1.75,1.818,1.818,0,0,1,1.3.483,1.66,1.66,0,0,1,.513,1.268A1.862,1.862,0,0,1,74.351,19.918Zm7.726,0a1.862,1.862,0,0,1-.513-1.328,1.615,1.615,0,0,1,.543-1.268,1.848,1.848,0,0,1,1.268-.483,1.66,1.66,0,0,1,1.268.513,1.741,1.741,0,0,1,.483,1.237,1.928,1.928,0,0,1-.483,1.328,1.615,1.615,0,0,1-1.268.543A1.708,1.708,0,0,1,82.076,19.918Z" transform="translate(-67.5)"/>
    </g>
  </g>
</svg>
