<svg xmlns="http://www.w3.org/2000/svg" viewBox="0 0 376.459 364.989">
  <defs>
    <style>
      .cls-1 {
        fill: #f5ebff;
      }

      .cls-2 {
        fill: #fdfdfd;
      }

      .cls-3, .cls-4 {
        fill: #04d6cc;
      }

      .cls-3 {
        opacity: 0.8;
      }

      .cls-5 {
        fill: #e8d1fe;
      }

      .cls-20, .cls-6 {
        fill: #b6b0f1;
      }

      .cls-7 {
        fill: #ead4ff;
      }

      .cls-19, .cls-20, .cls-7 {
        fill-rule: evenodd;
      }

      .cls-8 {
        fill: #ecab70;
      }

      .cls-9 {
        fill: #ecbc93;
      }

      .cls-10 {
        fill: #f3eefd;
      }

      .cls-11 {
        fill: rgba(197,167,254,0.19);
      }

      .cls-12 {
        fill: #eca96d;
      }

      .cls-13 {
        fill: #ff5374;
      }

      .cls-14, .cls-18, .cls-21 {
        fill: none;
        stroke-linecap: round;
      }

      .cls-14 {
        stroke: #000;
        stroke-width: 0.25px;
      }

      .cls-15 {
        fill: #c9c4fc;
      }

      .cls-16 {
        fill: #63c;
      }

      .cls-17 {
        fill: #eca768;
      }

      .cls-18 {
        stroke: #63c;
      }

      .cls-18, .cls-21 {
        stroke-linejoin: round;
      }

      .cls-19 {
        fill: #bbb6f1;
      }

      .cls-21 {
        stroke: #fff;
        stroke-width: 0.5px;
      }

      .cls-22 {
        fill: #01136e;
      }
    </style>
  </defs>
  <g id="Group_4641" data-name="Group 4641" transform="translate(17294 -9157.414)">
    <path id="Path_3261" data-name="Path 3261" class="cls-1" d="M65.594,141.37C-36.209,188.615,2.8,263.949,35.03,295.709c19.479,26.546,48.335,50.211,69.9,55.791,178.92,50.9,268.2-54.24,271.527-116.341C339.324,53.043,253,28.735,204.31,12.6,72.177-38.3,56.777,77.239,65.594,141.37Z" transform="translate(-17294 9157.414)"/>
    <rect id="Rectangle_916" data-name="Rectangle 916" class="cls-2" width="116.041" height="195.65" rx="7" transform="translate(-17171.211 9195.87)"/>
    <path id="Path_3262" data-name="Path 3262" class="cls-3" d="M338.2,280.2c3.518,8.452,2.491,29.748,1.539,39.339,4.749-7.014,4.324-22.854,3.517-29.9-1.759-8.992-.733-14.387,0-15.96,8.442-27.156,4.984-42.936,2.2-47.432C327.7,242.436,333.221,268.962,338.2,280.2Z" transform="translate(-17329.135 9133.563)"/>
    <path id="Path_3263" data-name="Path 3263" class="cls-4" d="M316.958,260.445c-8.527,23.553,7.033,51.616,15.879,62.7-4-10.428-4.133-18.429-3.7-21.126C329.139,276.312,321.018,263.592,316.958,260.445Z" transform="translate(-17327.152 9129.958)"/>
    <path id="Path_3264" data-name="Path 3264" class="cls-4" d="M360.687,262.662c7.642,23.73-9.568,50.782-19.13,61.342,4.575-10.137,5.076-18.054,4.755-20.746C347.493,277.8,356.387,265.585,360.687,262.662Z" transform="translate(-17330.008 9129.725)"/>
    <rect id="Rectangle_917" data-name="Rectangle 917" class="cls-5" width="99.174" height="26.986" transform="translate(-17162.441 9286.275)"/>
    <circle id="Ellipse_123" data-name="Ellipse 123" class="cls-5" cx="10.794" cy="10.794" r="10.794" transform="translate(-17120.014 9364.001)"/>
    <rect id="Rectangle_918" data-name="Rectangle 918" class="cls-5" width="99.174" height="26.986" transform="translate(-17162.441 9214.758)"/>
    <rect id="Rectangle_919" data-name="Rectangle 919" class="cls-6" width="65.586" height="4.723" transform="translate(-17156.234 9222.181)"/>
    <rect id="Rectangle_920" data-name="Rectangle 920" class="cls-6" width="84.985" height="4.723" transform="translate(-17156.234 9230.276)"/>
    <path id="Path_3265" data-name="Path 3265" class="cls-7" d="M358.988,324.285H33.188c1.784,1.992,3.573,3.865,5.34,5.608,19.479,26.546,48.335,50.211,69.9,55.792C239.76,423.045,322.792,376.335,358.988,324.285Z" transform="translate(-17297.498 9123.229)"/>
    <rect id="Rectangle_921" data-name="Rectangle 921" class="cls-5" width="99.174" height="26.986" transform="translate(-17162.441 9250.517)"/>
    <rect id="Rectangle_922" data-name="Rectangle 922" class="cls-6" width="65.304" height="5.367" transform="translate(-17156.234 9257.606)"/>
    <rect id="Rectangle_923" data-name="Rectangle 923" class="cls-6" width="84.985" height="5.367" transform="translate(-17156.234 9265.659)"/>
    <rect id="Rectangle_924" data-name="Rectangle 924" class="cls-6" width="65.304" height="5.367" transform="translate(-17156.234 9293.39)"/>
    <rect id="Rectangle_925" data-name="Rectangle 925" class="cls-6" width="84.985" height="5.367" transform="translate(-17156.234 9301.442)"/>
    <rect id="Rectangle_926" data-name="Rectangle 926" class="cls-5" width="60.832" height="17.892" transform="translate(-17139.236 9328.279)"/>
    <path id="Path_3266" data-name="Path 3266" class="cls-8" d="M201.746,201.929c-2.8-.026-5.365,3.04-6.036,3.974a16.091,16.091,0,0,0,1.687,1.955c1.241,1.3,1.8,1.284,2.321.366a4.773,4.773,0,0,0,.391-4.778C201.841,202.925,201.922,202.218,201.746,201.929Z" transform="translate(-17314.631 9136.127)"/>
    <path id="Path_3294" data-name="Path 3294" class="cls-9" d="M0-.477l6.4-.14L5.989,8.72H0Z" transform="translate(-17161.625 9351.403)"/>
    <ellipse id="Ellipse_124" data-name="Ellipse 124" class="cls-10" cx="30.248" cy="7.71" rx="30.248" ry="7.71" transform="translate(-17197.385 9463.84)"/>
    <ellipse id="Ellipse_125" data-name="Ellipse 125" class="cls-11" cx="30.248" cy="7.71" rx="30.248" ry="7.71" transform="translate(-17197.385 9463.84)"/>
    <rect id="Rectangle_928" data-name="Rectangle 928" class="cls-12" width="4.641" height="8.234" transform="translate(-17179.582 9460.635) rotate(18.971)"/>
    <path id="Path_3267" data-name="Path 3267" class="cls-13" d="M129.419,348.546c-1.283.169-3.39-.853-4.347-1.589a4.274,4.274,0,0,0-.905,2.634c.568,1.012,4.81,2.745,6.585,3.144C134.325,352.935,131.148,349.632,129.419,348.546Z" transform="translate(-17307.09 9120.838)"/>
    <path id="Path_3268" data-name="Path 3268" class="cls-14" d="M132.092,348.562c-.562-.192-.761.74-.794,1.308a.083.083,0,0,0,.13.074C132.5,349.244,132.349,348.693,132.092,348.562Z" transform="translate(-17307.842 9120.672)"/>
    <path id="Path_3269" data-name="Path 3269" class="cls-14" d="M130.394,348.816c-.409.371.191.871.649,1.152a.085.085,0,0,0,.129-.08C131.085,348.622,130.633,348.654,130.394,348.816Z" transform="translate(-17307.732 9120.65)"/>
    <rect id="Rectangle_929" data-name="Rectangle 929" class="cls-12" width="4.411" height="8.234" transform="matrix(1, -0.009, 0.009, 1, -17160.297, 9463.519)"/>
    <path id="Path_3270" data-name="Path 3270" class="cls-13" d="M153.93,350.675c-1.1.587-3.307.324-4.4-.05a4.489,4.489,0,0,0,.025,2.784c.83.766,5.181.986,6.9.772C159.718,353.178,155.824,351.122,153.93,350.675Z" transform="translate(-17309.74 9120.451)"/>
    <path id="Path_3271" data-name="Path 3271" class="cls-14" d="M156.294,349.812c-.561.005-.448.942-.3,1.489a.084.084,0,0,0,.149.026C156.877,350.315,156.566,349.85,156.294,349.812Z" transform="translate(-17310.434 9120.537)"/>
    <path id="Path_3272" data-name="Path 3272" class="cls-14" d="M154.83,350.63c-.249.486.445.758.946.87a.084.084,0,0,0,.092-.118C155.387,350.217,154.992,350.4,154.83,350.63Z" transform="translate(-17310.316 9120.469)"/>
    <path id="Path_3273" data-name="Path 3273" class="cls-15" d="M126.212,334.229l5.81.624,9-18.276,9.64-37.018,2.125-12.157c-4.723-2.164-18.612-10.813-19.519-.8-1.646,2.109-1.583,30.8-1.243,48.092C130.225,322.7,130.553,321.728,126.212,334.229Z" transform="translate(-17307.305 9129.809)"/>
    <path id="Path_3274" data-name="Path 3274" class="cls-16" d="M132.689,229.29l4.642-4.067,1.581,6.753-7.76,7.185,2.3,17.1h-3.018l-2.71-7.247A17.89,17.89,0,0,1,132.689,229.29Z" transform="translate(-17307.344 9133.671)"/>
    <path id="Path_3275" data-name="Path 3275" class="cls-16" d="M192.517,206.371c-1.881,4.982-15.617,9.818-22.965,11.993l-4.142,10.994c9.17-.712,27.232-15.259,30.758-20.2Z" transform="translate(-17311.438 9135.659)"/>
    <path id="Path_3276" data-name="Path 3276" class="cls-16" d="M164.4,235.15c1.383-8.413,5.143-7.387,7.953-9.22l-3.811-6.154-9.594,1.714-3.161,2.012Z" transform="translate(-17310.422 9134.246)"/>
    <path id="Path_3277" data-name="Path 3277" class="cls-17" d="M133.469,265.238c-2.414-.46-2.73-3.736-2.586-5.316H133.9Z" transform="translate(-17307.795 9130.014)"/>
    <path id="Path_3278" data-name="Path 3278" class="cls-18" d="M149.531,341.734a27.451,27.451,0,0,0,4.605.079" transform="translate(-17309.764 9121.39)"/>
    <path id="Path_3279" data-name="Path 3279" class="cls-19" d="M149.369,287.334c.751-7.386,1.161-14.371,1.314-19.885H138.377c0,.506.013.981.026,1.448.07,2.55.134,4.887-1.954,10.858-2.242,1.775-.556,16.657.456,25.584.274,2.411.5,4.388.581,5.554-.1-.445-.237-.919,0,.742s-2.273,9-3.559,12.455c-3.042,3.862-2.295,9.1-1.515,11.328l.191.02,9-18.276Z" transform="translate(-17307.885 9129.22)"/>
    <path id="Path_3280" data-name="Path 3280" class="cls-15" d="M148.028,334.575l-4.68-50.951a53.662,53.662,0,0,1,.3-12.391l1.32-9.381c3.146-1.469,9.407-3.1,13.483-.977,4.512,2.347,4.375,9.046,3.863,14.107-1.489,14.708-7.5,46.064-7.87,59.593Z" transform="translate(-17309.086 9130.02)"/>
    <path id="Path_3281" data-name="Path 3281" class="cls-20" d="M163.073,267.109a28.571,28.571,0,0,1,.159,8.631c-.6,5.926-1.934,14.553-3.339,23.628-2.08,13.452-4.314,27.887-4.531,35.966h-.614l-.165-.166c-1.235-.889-3.469-4.508-2.52-11.862a75.7,75.7,0,0,0,2.52-20.166c-1.68-4.892-4.033-16.429,0-23.427,1.68-3.212,4.536-10.231,2.521-12.6Z" transform="translate(-17310.006 9129.256)"/>
    <path id="Path_3282" data-name="Path 3282" class="cls-21" d="M125.352,350.247a9.082,9.082,0,0,1,.764-.624c.1-.069.189-.159.291-.228a.282.282,0,0,0,.13-.146" transform="translate(-17307.215 9120.597)"/>
    <path id="Path_3283" data-name="Path 3283" class="cls-21" d="M127.443,351.218a2.38,2.38,0,0,0,.769-.69c.106-.178.212-.362.307-.546a1.779,1.779,0,0,0,.275-.76" transform="translate(-17307.434 9120.599)"/>
    <path id="Path_3284" data-name="Path 3284" class="cls-21" d="M129.627,352.19a1.218,1.218,0,0,0,.681-.628c.062-.143.129-.281.182-.428a1.859,1.859,0,0,1,.135-.358" transform="translate(-17307.666 9120.436)"/>
    <path id="Path_3285" data-name="Path 3285" class="cls-21" d="M131.7,352.742a2.715,2.715,0,0,0,.457-.645.533.533,0,0,0,.1-.249" transform="translate(-17307.883 9120.323)"/>
    <path id="Path_3286" data-name="Path 3286" class="cls-21" d="M150.341,353.251a9,9,0,0,1,.616-.769c.087-.089.152-.2.237-.284a.276.276,0,0,0,.1-.169" transform="translate(-17309.848 9120.305)"/>
    <path id="Path_3287" data-name="Path 3287" class="cls-21" d="M152.613,353.758a2.389,2.389,0,0,0,.607-.836c.067-.2.132-.4.186-.6a1.779,1.779,0,0,0,.11-.8" transform="translate(-17310.088 9120.356)"/>
    <path id="Path_3288" data-name="Path 3288" class="cls-21" d="M154.938,354.264a1.221,1.221,0,0,0,.535-.757c.03-.152.066-.3.088-.455a1.856,1.856,0,0,1,.057-.378" transform="translate(-17310.334 9120.235)"/>
    <path id="Path_3289" data-name="Path 3289" class="cls-21" d="M157.062,354.375a2.72,2.72,0,0,0,.313-.725.546.546,0,0,0,.049-.266" transform="translate(-17310.557 9120.161)"/>
    <path id="Path_3290" data-name="Path 3290" class="cls-16" d="M163.917,228.108a7.187,7.187,0,0,0-1.069-3.014c-5.765-9.212-25.206-8.066-25.656,2.792a11.272,11.272,0,0,0-.933,4.429l-2.454,27.961a1.79,1.79,0,0,0,1.782,1.946h25.865a.337.337,0,0,0,.333-.39l-.281-1.721A68.439,68.439,0,0,1,163.917,228.108Z" transform="translate(-17308.105 9134.34)"/>
    <path id="Path_3293" data-name="Path 3293" class="cls-9" d="M-17123.225,9380.013c.744,3.846,2.975,10.586-3.354,12.079.164-.033.084-.016,0,0-6.385,1.213-9.432-1.443-8.787-4.975S-17123.971,9376.167-17123.225,9380.013Z" transform="translate(-29.112 -40.674)"/>
    <path id="Path_3292" data-name="Path 3292" class="cls-22" d="M133.058,200.02c1.121,8.129-3.288,15.291-6.114,19.325a2.146,2.146,0,0,0,1.613,3.489l1.719.181c.159.874-.563,1.922-1.511,2.863-.323.321.119,1.137.549.985v2.309c13.607.885,12.658-19.082,10.093-24.149-2.463-4.31.514-3.976,2.309-3.271l3.078-2.886C138.022,193.17,134.147,197.262,133.058,200.02Z" transform="translate(-17307.332 9136.753)"/>
    <path id="Path_3291" data-name="Path 3291" class="cls-22" d="M146.4,199.147c6.772-1.693,9.619,1.732,10.2,3.656L153.3,205.48l-3.593,2.3c-4.167-3.017-5.029.287-2.586,2.874l-1.581,3.017C138.3,206.744,142.94,200.879,146.4,199.147Z" transform="translate(-17308.938 9136.468)"/>
  </g>
</svg>
