<svg xmlns="http://www.w3.org/2000/svg" viewBox="0 0 36.653 35.262">
  <defs>
    <style>
      .cls-1 {
        fill: #8c37db;
      }

      .cls-2 {
        fill: none;
        stroke: #fff;
        stroke-linecap: round;
      }
    </style>
  </defs>
  <g id="Group_4679" data-name="Group 4679" transform="translate(-167 -271.626)">
    <path id="Path_3307" data-name="Path 3307" class="cls-1" d="M14.83,2.453a4.128,4.128,0,0,1,7.073,0l3.11,5.167a4.128,4.128,0,0,0,2.605,1.893l5.875,1.361A4.128,4.128,0,0,1,35.679,17.6l-3.953,4.554a4.128,4.128,0,0,0-1,3.063l.521,6.008a4.128,4.128,0,0,1-5.722,4.157l-5.553-2.353a4.127,4.127,0,0,0-3.22,0L11.2,35.384a4.128,4.128,0,0,1-5.722-4.157L6,25.218a4.127,4.127,0,0,0-1-3.063L1.054,17.6A4.128,4.128,0,0,1,3.24,10.874L9.115,9.514A4.128,4.128,0,0,0,11.72,7.621Z" transform="translate(166.959 271.172)"/>
    <path id="Path_3308" data-name="Path 3308" class="cls-2" d="M6786.785,9038.17l3.842,3.928,8.985-8.984" transform="translate(-6606 -8746.894)"/>
  </g>
</svg>
