<svg xmlns="http://www.w3.org/2000/svg" xmlns:xlink="http://www.w3.org/1999/xlink" viewBox="0 0 180 56.949">
  <defs>
    <style>
      .cls-1 {
        clip-path: url(#clip-path);
      }

      .cls-2 {
        fill: url(#linear-gradient);
      }

      .cls-3 {
        fill: url(#linear-gradient-2);
      }

      .cls-4 {
        fill: url(#linear-gradient-3);
      }

      .cls-5 {
        fill: url(#linear-gradient-4);
      }

      .cls-6 {
        fill: #f9f9f9;
      }

      .cls-7 {
        fill: #f9f9fa;
      }
    </style>
    <clipPath id="clip-path">
      <path id="Path_2213" data-name="Path 2213" d="M63.878,47.435l-8.094-4.527S41,34.636,40.124,34.159s-1.724-.2-1.724.817v35.64c0,.749.633,1.089,1.372.681s16.012-8.953,16.012-8.953l8.129-4.527,7.812-4.357c.915-.511.845-1.225.07-1.6C70.987,51.452,63.878,47.435,63.878,47.435Z" transform="translate(-38.4 -33.932)"/>
    </clipPath>
    <linearGradient id="linear-gradient" x1="0.5" x2="0.5" y2="1" gradientUnits="objectBoundingBox">
      <stop offset="0" stop-color="#257cb0"/>
      <stop offset="0.286" stop-color="#4a93b5"/>
      <stop offset="0.767" stop-color="#78bcbb"/>
      <stop offset="1" stop-color="#89cfbd"/>
    </linearGradient>
    <linearGradient id="linear-gradient-2" y1="0.5" x2="1.001" y2="0.5" gradientUnits="objectBoundingBox">
      <stop offset="0" stop-color="#52c1ad"/>
      <stop offset="1" stop-color="#dee89a"/>
    </linearGradient>
    <linearGradient id="linear-gradient-3" x1="0.5" y1="-0.001" x2="0.5" y2="1" gradientUnits="objectBoundingBox">
      <stop offset="0" stop-color="#ec413d"/>
      <stop offset="0.167" stop-color="#da4452"/>
      <stop offset="0.575" stop-color="#b0487a"/>
      <stop offset="0.862" stop-color="#954a92"/>
      <stop offset="1" stop-color="#8a4a9d"/>
    </linearGradient>
    <linearGradient id="linear-gradient-4" x1="0.5" y1="0.002" x2="0.5" y2="0.999" gradientUnits="objectBoundingBox">
      <stop offset="0" stop-color="#f58879"/>
      <stop offset="0.119" stop-color="#f69079"/>
      <stop offset="0.713" stop-color="#fcb877"/>
      <stop offset="1" stop-color="#fec874"/>
    </linearGradient>
  </defs>
  <g id="Group_871" data-name="Group 871" transform="translate(0 0)">
    <path id="Path_2211" data-name="Path 2211" d="M180,49.256a7.818,7.818,0,0,1-7.953,7.693H7.953A7.818,7.818,0,0,1,0,49.256V7.693A7.818,7.818,0,0,1,7.953,0H172.047A7.818,7.818,0,0,1,180,7.693Z"/>
    <g id="PLAY_2_" transform="translate(13.513 11.55)">
      <g id="Group_863" data-name="Group 863" class="cls-1">
        <path id="Path_2212" data-name="Path 2212" class="cls-2" d="M38.4,32.2V70.767L58.494,51.5Z" transform="translate(-38.4 -32.79)"/>
      </g>
      <g id="Group_864" data-name="Group 864" class="cls-1">
        <path id="Path_2214" data-name="Path 2214" class="cls-3" d="M63.878,46.029,55.784,41.5,38.4,31.8v.136l20.094,19.3Z" transform="translate(-38.4 -32.526)"/>
      </g>
      <g id="Group_865" data-name="Group 865" class="cls-1">
        <path id="Path_2216" data-name="Path 2216" class="cls-4" d="M38.4,108.167v.136l17.384-9.7,8.094-4.527L58.494,88.9Z" transform="translate(-38.4 -70.189)"/>
      </g>
      <g id="Group_866" data-name="Group 866" class="cls-1">
        <path id="Path_2218" data-name="Path 2218" class="cls-5" d="M100.884,73.6,95.5,78.808l5.384,5.174,9.29-5.174Z" transform="translate(-75.406 -60.097)"/>
      </g>
    </g>
    <g id="Group_867" data-name="Group 867" transform="translate(134.674 21.65)">
      <path id="Path_2220" data-name="Path 2220" class="cls-6" d="M388.119,88.508a5.242,5.242,0,0,1-2.076-.408,3.745,3.745,0,0,1-1.584-1.259h-.141a17.376,17.376,0,0,1,.141,1.872v4.629H382.7V77.1h1.443l.246,1.532h.07a4.111,4.111,0,0,1,1.584-1.328,5,5,0,0,1,2.076-.408,4.325,4.325,0,0,1,3.554,1.532,7.894,7.894,0,0,1,0,8.578A4.552,4.552,0,0,1,388.119,88.508Zm-.282-10.178a3.108,3.108,0,0,0-2.569.953,4.706,4.706,0,0,0-.809,3.03v.374a5.562,5.562,0,0,0,.809,3.37,3.109,3.109,0,0,0,2.6,1.021,2.783,2.783,0,0,0,2.358-1.191,5.473,5.473,0,0,0,.845-3.234,5.332,5.332,0,0,0-.845-3.234A2.852,2.852,0,0,0,387.838,78.33Z" transform="translate(-382.7 -72.373)"/>
      <path id="Path_2221" data-name="Path 2221" class="cls-6" d="M420.06,79.531H418.3V63.6h1.76Z" transform="translate(-405.772 -63.6)"/>
      <path id="Path_2222" data-name="Path 2222" class="cls-6" d="M437.288,88.3l-.352-1.6h-.07a4.581,4.581,0,0,1-1.724,1.43,5.607,5.607,0,0,1-2.147.374,3.952,3.952,0,0,1-2.71-.851,3.056,3.056,0,0,1-.985-2.451c0-2.281,1.865-3.438,5.63-3.574l1.971-.068v-.681a2.749,2.749,0,0,0-.6-1.94,2.489,2.489,0,0,0-1.865-.613,7.692,7.692,0,0,0-3.273.851l-.528-1.294a8.093,8.093,0,0,1,1.865-.715,8.408,8.408,0,0,1,2.041-.272,4.584,4.584,0,0,1,3.062.885,3.6,3.6,0,0,1,.985,2.859V88.3Zm-3.977-1.191a3.651,3.651,0,0,0,2.569-.885,3.152,3.152,0,0,0,.95-2.451V82.755l-1.76.068a6.373,6.373,0,0,0-3.026.647,1.85,1.85,0,0,0-.915,1.736,1.676,1.676,0,0,0,.563,1.4A2.349,2.349,0,0,0,433.312,87.112Z" transform="translate(-412.901 -72.373)"/>
      <path id="Path_2223" data-name="Path 2223" class="cls-6" d="M458.6,77.5h1.865L463,83.9a19.144,19.144,0,0,1,1.02,3.166h.07c.106-.34.282-.953.563-1.77.281-.851,1.267-3.438,2.886-7.761h1.9l-4.962,12.731a6.384,6.384,0,0,1-1.724,2.689,3.7,3.7,0,0,1-2.428.783,8.347,8.347,0,0,1-1.584-.17V92.205a7.252,7.252,0,0,0,1.3.136,2.633,2.633,0,0,0,2.569-1.974l.633-1.6Z" transform="translate(-431.89 -72.768)"/>
    </g>
    <g id="Group_869" data-name="Group 869" transform="translate(54.616 20.424)">
      <path id="Path_2224" data-name="Path 2224" class="cls-6" d="M289.009,78.851a3.928,3.928,0,0,1,1.724,3.166c0,1.736-1.021,2.553-2.041,3.336a1.653,1.653,0,0,0-.669,1.157,1.326,1.326,0,0,0,.633,1.021l.88.647c1.056.885,2.041,1.668,2.041,3.3,0,2.213-2.217,4.425-6.37,4.425-3.519,0-5.208-1.634-5.208-3.37a3.32,3.32,0,0,1,1.865-2.859,10.893,10.893,0,0,1,4.645-1.089,2.317,2.317,0,0,1-.739-1.6,1.785,1.785,0,0,1,.246-.919,6.164,6.164,0,0,1-.774.034,3.755,3.755,0,0,1-4.012-3.676,4.054,4.054,0,0,1,1.548-3.132A6.814,6.814,0,0,1,287.109,78h5l-1.548.851h-1.548Zm-1.724,10.416a2.94,2.94,0,0,0-.563-.034,9.437,9.437,0,0,0-2.534.374,2.648,2.648,0,0,0-2.076,2.417c0,1.668,1.689,2.859,4.258,2.859,2.323,0,3.554-1.089,3.554-2.519C289.924,91.174,289.15,90.527,287.284,89.267Zm.7-4.459a2.288,2.288,0,0,0,.6-1.7c0-1.7-1.056-4.323-3.062-4.323a2.256,2.256,0,0,0-1.689.783,2.557,2.557,0,0,0-.528,1.736c0,1.566.95,4.187,3.026,4.187A2.5,2.5,0,0,0,287.988,84.808Z" transform="translate(-236.082 -71.873)"/>
      <path id="Path_2225" data-name="Path 2225" class="cls-6" d="M251.312,88.3a5.626,5.626,0,0,1-5.912-5.515c0-3.064,2.6-5.685,6.264-5.685a5.554,5.554,0,0,1,5.771,5.515A5.78,5.78,0,0,1,251.312,88.3Zm3.026-1.906a4.053,4.053,0,0,0,.739-2.587c0-2.076-1.021-5.991-4.012-5.991a3.542,3.542,0,0,0-2.182.783,3.458,3.458,0,0,0-1.126,2.859c0,2.315,1.2,6.127,4.117,6.127A3.021,3.021,0,0,0,254.338,86.393Z" transform="translate(-213.658 -71.279)"/>
      <path id="Path_2226" data-name="Path 2226" class="cls-6" d="M214.012,88.3a5.626,5.626,0,0,1-5.912-5.515c0-3.064,2.6-5.685,6.264-5.685a5.554,5.554,0,0,1,5.771,5.515A5.78,5.78,0,0,1,214.012,88.3Zm3.026-1.906a4.053,4.053,0,0,0,.739-2.587c0-2.076-1.021-5.991-4.012-5.991a3.542,3.542,0,0,0-2.182.783,3.458,3.458,0,0,0-1.126,2.859c0,2.315,1.2,6.127,4.117,6.127A3.022,3.022,0,0,0,217.038,86.393Z" transform="translate(-189.484 -71.279)"/>
      <path id="Path_2227" data-name="Path 2227" class="cls-6" d="M171.986,77.635l-3.484.783a27.675,27.675,0,0,1-4.012.408c-6.721,0-9.29-4.766-9.29-8.51,0-4.561,3.625-8.816,9.818-8.816a14.7,14.7,0,0,1,3.73.511,10.012,10.012,0,0,1,3.2,1.464l-2.006,1.872-.845.2.6-.953a7.033,7.033,0,0,0-5.208-2.213,6.619,6.619,0,0,0-6.757,6.944,8.445,8.445,0,0,0,8.622,8.578,7.779,7.779,0,0,0,3.1-.579V73.516l-3.66.2,1.935-1.021H172.9l-.633.579a.514.514,0,0,0-.246.374c-.035.2-.035.885-.035,1.123Z" transform="translate(-155.2 -60.989)"/>
      <path id="Path_2228" data-name="Path 2228" class="cls-6" d="M317.973,75.965c-.809-.068-.985-.2-.985-1.123V61.4c.106-.817.352-.953,1.091-1.4H314.63l-1.83.851h1.865V75.386c0,.477-.106.545-.669,1.259h4.293l.915-.511C318.782,76.067,318.4,76.033,317.973,75.965Z" transform="translate(-257.34 -60)"/>
      <path id="Path_2229" data-name="Path 2229" class="cls-6" d="M339.333,87.416a9.018,9.018,0,0,1-.809.408,6.015,6.015,0,0,1-2.358.443,5.128,5.128,0,0,1-3.2-.919,5.92,5.92,0,0,1-2.463-4.936A5.424,5.424,0,0,1,336.025,77a4.875,4.875,0,0,1,2.5.647,3.969,3.969,0,0,1,1.689,2.315l-5.666,2.247-1.865.136c.6,2.961,2.675,4.7,5,4.7a6.378,6.378,0,0,0,2.956-.817Zm-2.252-6.978c.457-.17.7-.306.7-.647a2.385,2.385,0,0,0-2.393-2.008,2.9,2.9,0,0,0-2.78,3.234c0,.408.035.817.07,1.225Z" transform="translate(-268.811 -71.213)"/>
      <g id="Group_868" data-name="Group 868" transform="translate(72.141 5.821)">
        <path id="Path_2230" data-name="Path 2230" class="cls-6" d="M360.939,77.27V78.8h-.211V77.27H360.2V77.1h1.232v.17Z" transform="translate(-360.2 -77.1)"/>
        <path id="Path_2231" data-name="Path 2231" class="cls-6" d="M366,78.8V77.236h0l-.493,1.566h-.141l-.493-1.566h0V78.8H364.7V77.1h.317l.457,1.362h0l.457-1.362h.317v1.7Z" transform="translate(-363.116 -77.1)"/>
      </g>
    </g>
    <g id="Group_870" data-name="Group 870" transform="translate(54.686 11.472)">
      <path id="Path_2232" data-name="Path 2232" class="cls-7" d="M160.186,38.766h-1.2a6.284,6.284,0,0,0-.352-1.362h-1.76a6.285,6.285,0,0,0-.352,1.362H155.4a20.4,20.4,0,0,1,.88-2.349A16.776,16.776,0,0,0,157.16,34H158.6a23.768,23.768,0,0,0,.809,2.383C159.9,37.847,160.186,38.629,160.186,38.766Zm-1.76-2.076a20.519,20.519,0,0,1-.633-2.042h-.07a16.756,16.756,0,0,1-.669,2.042Z" transform="translate(-155.4 -33.898)"/>
      <path id="Path_2233" data-name="Path 2233" class="cls-7" d="M175.347,38.7h-.95a9.9,9.9,0,0,0-1.056-1.6,8.415,8.415,0,0,1-1.232-2.076h-.07a11.4,11.4,0,0,1,.106,1.464c0,.613,0,1.328.07,2.213H171.3c.035-.749.07-1.6.07-2.485s-.035-1.634-.07-2.281h1.126a6.353,6.353,0,0,0,.95,1.532,7.425,7.425,0,0,1,1.126,1.94h.07a11.4,11.4,0,0,1-.106-1.464c0-.647-.035-1.328-.07-2.042h.95c-.035.613-.07,1.362-.07,2.281C175.312,37.134,175.312,37.951,175.347,38.7Z" transform="translate(-165.705 -33.832)"/>
      <path id="Path_2234" data-name="Path 2234" class="cls-7" d="M190.688,36.213a2.653,2.653,0,0,1-.7,1.8,2.458,2.458,0,0,1-1.935.783c-.387,0-.88,0-1.548-.034.035-.749.035-1.566.035-2.485,0-.885,0-1.634-.035-2.281h1.584a2.522,2.522,0,0,1,1.971.647A2.174,2.174,0,0,1,190.688,36.213Zm-1.056.17a1.771,1.771,0,0,0-.422-1.191,1.674,1.674,0,0,0-1.3-.477,2.608,2.608,0,0,0-.457.034c.035.477.035.987.035,1.532,0,.579,0,1.157.035,1.736a2.4,2.4,0,0,0,.493.034,1.485,1.485,0,0,0,1.2-.477A1.612,1.612,0,0,0,189.632,36.383Z" transform="translate(-175.556 -33.898)"/>
      <path id="Path_2235" data-name="Path 2235" class="cls-7" d="M205.377,38.766H204.25a7.749,7.749,0,0,0-.669-1.6.877.877,0,0,0-.739-.306h-.422c0,.613,0,1.259.035,1.906H201.4c.035-.749.035-1.566.035-2.485,0-.885,0-1.634-.035-2.281h1.795c1.161,0,1.724.374,1.724,1.157a1.265,1.265,0,0,1-.985,1.259v.068a1.186,1.186,0,0,1,.669.579A7.725,7.725,0,0,1,205.377,38.766Zm-1.408-3.37c0-.477-.317-.715-.985-.715a1.8,1.8,0,0,0-.633.068c.035.374.035.885.035,1.464h.352C203.582,36.213,203.969,35.94,203.969,35.4Z" transform="translate(-185.212 -33.898)"/>
      <path id="Path_2236" data-name="Path 2236" class="cls-7" d="M219.286,36.117a2.7,2.7,0,0,1-.7,1.872,2.378,2.378,0,0,1-1.76.749,2.213,2.213,0,0,1-1.654-.681,2.294,2.294,0,0,1-.669-1.736,2.7,2.7,0,0,1,.7-1.872,2.378,2.378,0,0,1,1.76-.749,2.213,2.213,0,0,1,1.654.681A2.294,2.294,0,0,1,219.286,36.117Zm-1.021.1a1.9,1.9,0,0,0-.387-1.225,1.3,1.3,0,0,0-.985-.477,1.287,1.287,0,0,0-.95.477,1.9,1.9,0,0,0-.387,1.225,1.74,1.74,0,0,0,.422,1.225,1.3,1.3,0,0,0,.985.477,1.287,1.287,0,0,0,.95-.477A2.294,2.294,0,0,0,218.265,36.219Z" transform="translate(-193.702 -33.7)"/>
      <path id="Path_2237" data-name="Path 2237" class="cls-7" d="M232.256,38.766H231.2c.035-.749.035-1.6.035-2.485s0-1.634-.035-2.281h1.056c-.035.613-.035,1.362-.035,2.281S232.221,38.017,232.256,38.766Z" transform="translate(-204.526 -33.898)"/>
      <path id="Path_2238" data-name="Path 2238" class="cls-7" d="M242.088,36.213a2.653,2.653,0,0,1-.7,1.8,2.458,2.458,0,0,1-1.935.783c-.387,0-.88,0-1.548-.034.035-.749.035-1.566.035-2.485,0-.885,0-1.634-.035-2.281h1.584a2.522,2.522,0,0,1,1.971.647A2.174,2.174,0,0,1,242.088,36.213Zm-1.056.17a1.771,1.771,0,0,0-.422-1.191,1.674,1.674,0,0,0-1.3-.477,2.608,2.608,0,0,0-.457.034c.035.477.035.987.035,1.532,0,.579,0,1.157.035,1.736a2.4,2.4,0,0,0,.493.034,1.485,1.485,0,0,0,1.2-.477A1.612,1.612,0,0,0,241.032,36.383Z" transform="translate(-208.868 -33.898)"/>
      <path id="Path_2239" data-name="Path 2239" class="cls-7" d="M261.586,38.766h-1.2a6.284,6.284,0,0,0-.352-1.362h-1.76a6.286,6.286,0,0,0-.352,1.362H256.8a20.4,20.4,0,0,1,.88-2.349A16.779,16.779,0,0,0,258.56,34H260a23.767,23.767,0,0,0,.809,2.383A18.66,18.66,0,0,1,261.586,38.766Zm-1.724-2.076a20.521,20.521,0,0,1-.633-2.042h-.07a16.76,16.76,0,0,1-.669,2.042Z" transform="translate(-221.117 -33.898)"/>
      <path id="Path_2240" data-name="Path 2240" class="cls-7" d="M276.389,35.259a1.393,1.393,0,0,1-.669,1.294,3.119,3.119,0,0,1-1.654.408h-.246c0,.443,0,1.055.035,1.8H272.8c.035-.715.035-1.532.035-2.485,0-.885,0-1.634-.035-2.281h1.9a2.14,2.14,0,0,1,1.2.306A1.053,1.053,0,0,1,276.389,35.259Zm-.985.2c0-.511-.352-.783-1.091-.783a3.622,3.622,0,0,0-.563.068c.035.477.035.987.035,1.566H274C274.947,36.315,275.4,36.008,275.4,35.464Z" transform="translate(-231.486 -33.898)"/>
      <path id="Path_2241" data-name="Path 2241" class="cls-7" d="M289.189,35.259a1.393,1.393,0,0,1-.669,1.294,3.119,3.119,0,0,1-1.654.408h-.246c0,.443,0,1.055.035,1.8H285.6c.035-.715.035-1.532.035-2.485,0-.885,0-1.634-.035-2.281h1.9a2.14,2.14,0,0,1,1.2.306A.987.987,0,0,1,289.189,35.259Zm-.95.2c0-.511-.352-.783-1.091-.783a3.621,3.621,0,0,0-.563.068c.035.477.035.987.035,1.566h.211C287.782,36.315,288.239,36.008,288.239,35.464Z" transform="translate(-239.782 -33.898)"/>
      <path id="Path_2242" data-name="Path 2242" class="cls-7" d="M308.086,36.117a2.7,2.7,0,0,1-.7,1.872,2.258,2.258,0,0,1-1.76.749,2.213,2.213,0,0,1-1.654-.681,2.294,2.294,0,0,1-.669-1.736,2.7,2.7,0,0,1,.7-1.872,2.378,2.378,0,0,1,1.76-.749,2.213,2.213,0,0,1,1.654.681A2.294,2.294,0,0,1,308.086,36.117Zm-1.056.1a1.9,1.9,0,0,0-.387-1.225,1.3,1.3,0,0,0-.985-.477,1.287,1.287,0,0,0-.95.477,1.9,1.9,0,0,0-.387,1.225,1.74,1.74,0,0,0,.422,1.225,1.3,1.3,0,0,0,.985.477,1.287,1.287,0,0,0,.95-.477A2.024,2.024,0,0,0,307.03,36.219Z" transform="translate(-251.253 -33.7)"/>
      <path id="Path_2243" data-name="Path 2243" class="cls-7" d="M324.047,38.7h-.95a9.9,9.9,0,0,0-1.056-1.6,8.416,8.416,0,0,1-1.232-2.076h-.07a11.4,11.4,0,0,1,.106,1.464c0,.613,0,1.328.07,2.213H320c.035-.749.07-1.6.07-2.485s-.035-1.634-.07-2.281h1.126a6.352,6.352,0,0,0,.95,1.532,7.425,7.425,0,0,1,1.126,1.94h.07a11.4,11.4,0,0,1-.106-1.464c0-.647,0-1.328-.07-2.042h.95c-.035.613-.07,1.362-.07,2.281C323.977,37.134,324.012,37.951,324.047,38.7Z" transform="translate(-262.076 -33.832)"/>
    </g>
  </g>
</svg>
