<svg id="Rounded" xmlns="http://www.w3.org/2000/svg" viewBox="0 0 16.2 18">
  <defs>
    <style>
      .cls-1 {
        fill: #7f30c8;
      }
    </style>
  </defs>
  <g id="Group_822" data-name="Group 822">
    <path id="Path_676" data-name="Path 676" class="cls-1" d="M17.4,3.8h-.9V2.9a.9.9,0,1,0-1.8,0v.9H7.5V2.9a.9.9,0,1,0-1.8,0v.9H4.8A1.792,1.792,0,0,0,3.009,5.6L3,18.2A1.8,1.8,0,0,0,4.8,20H17.4a1.805,1.805,0,0,0,1.8-1.8V5.6A1.805,1.805,0,0,0,17.4,3.8Zm0,13.5a.9.9,0,0,1-.9.9H5.7a.9.9,0,0,1-.9-.9v-9H17.4Z" transform="translate(-3 -2)"/>
    <rect id="Rectangle_96" data-name="Rectangle 96" class="cls-1" width="1.8" height="1.8" transform="translate(3.6 8.1)"/>
    <rect id="Rectangle_97" data-name="Rectangle 97" class="cls-1" width="1.8" height="1.8" transform="translate(7.2 8.1)"/>
    <rect id="Rectangle_98" data-name="Rectangle 98" class="cls-1" width="1.8" height="1.8" transform="translate(10.8 8.1)"/>
  </g>
</svg>
