<svg id="Group_975" data-name="Group 975" xmlns="http://www.w3.org/2000/svg" xmlns:xlink="http://www.w3.org/1999/xlink" viewBox="0 0 373 58.963">
  <defs>
    <style>
      .cls-1 {
        clip-path: url(#clip-path);
      }

      .cls-2 {
        fill: url(#linear-gradient);
      }

      .cls-3 {
        fill: url(#linear-gradient-2);
      }

      .cls-4 {
        fill: url(#linear-gradient-3);
      }

      .cls-5 {
        fill: url(#linear-gradient-4);
      }

      .cls-6 {
        fill: #f9f9f9;
      }

      .cls-7 {
        fill: #f9f9fa;
      }

      .cls-8 {
        fill: #fff;
      }
    </style>
    <clipPath id="clip-path">
      <path id="Path_2213" data-name="Path 2213" d="M63.878,47.435l-8.094-4.527S41,34.636,40.124,34.159s-1.724-.2-1.724.817v35.64c0,.749.633,1.089,1.372.681s16.012-8.953,16.012-8.953l8.129-4.527,7.812-4.357c.915-.511.845-1.225.07-1.6C70.987,51.452,63.878,47.435,63.878,47.435Z" transform="translate(-38.4 -33.932)"/>
    </clipPath>
    <linearGradient id="linear-gradient" x1="0.5" x2="0.5" y2="1" gradientUnits="objectBoundingBox">
      <stop offset="0" stop-color="#257cb0"/>
      <stop offset="0.286" stop-color="#4a93b5"/>
      <stop offset="0.767" stop-color="#78bcbb"/>
      <stop offset="1" stop-color="#89cfbd"/>
    </linearGradient>
    <linearGradient id="linear-gradient-2" y1="0.5" x2="1.001" y2="0.5" gradientUnits="objectBoundingBox">
      <stop offset="0" stop-color="#52c1ad"/>
      <stop offset="1" stop-color="#dee89a"/>
    </linearGradient>
    <linearGradient id="linear-gradient-3" x1="0.5" y1="-0.001" x2="0.5" y2="1" gradientUnits="objectBoundingBox">
      <stop offset="0" stop-color="#ec413d"/>
      <stop offset="0.167" stop-color="#da4452"/>
      <stop offset="0.575" stop-color="#b0487a"/>
      <stop offset="0.862" stop-color="#954a92"/>
      <stop offset="1" stop-color="#8a4a9d"/>
    </linearGradient>
    <linearGradient id="linear-gradient-4" x1="0.5" y1="0.002" x2="0.5" y2="0.999" gradientUnits="objectBoundingBox">
      <stop offset="0" stop-color="#f58879"/>
      <stop offset="0.119" stop-color="#f69079"/>
      <stop offset="0.713" stop-color="#fcb877"/>
      <stop offset="1" stop-color="#fec874"/>
    </linearGradient>
  </defs>
  <g id="Group_871" data-name="Group 871" transform="translate(0 2.013)">
    <path id="Path_2211" data-name="Path 2211" d="M180,49.256a7.818,7.818,0,0,1-7.953,7.693H7.953A7.818,7.818,0,0,1,0,49.256V7.693A7.818,7.818,0,0,1,7.953,0H172.047A7.818,7.818,0,0,1,180,7.693Z"/>
    <g id="PLAY_2_" transform="translate(13.513 11.55)">
      <g id="Group_863" data-name="Group 863" class="cls-1">
        <path id="Path_2212" data-name="Path 2212" class="cls-2" d="M38.4,32.2V70.767L58.494,51.5Z" transform="translate(-38.4 -32.79)"/>
      </g>
      <g id="Group_864" data-name="Group 864" class="cls-1">
        <path id="Path_2214" data-name="Path 2214" class="cls-3" d="M63.878,46.029,55.784,41.5,38.4,31.8v.136l20.094,19.3Z" transform="translate(-38.4 -32.526)"/>
      </g>
      <g id="Group_865" data-name="Group 865" class="cls-1">
        <path id="Path_2216" data-name="Path 2216" class="cls-4" d="M38.4,108.167v.136l17.384-9.7,8.094-4.527L58.494,88.9Z" transform="translate(-38.4 -70.189)"/>
      </g>
      <g id="Group_866" data-name="Group 866" class="cls-1">
        <path id="Path_2218" data-name="Path 2218" class="cls-5" d="M100.884,73.6,95.5,78.808l5.384,5.174,9.29-5.174Z" transform="translate(-75.406 -60.097)"/>
      </g>
    </g>
    <g id="Group_867" data-name="Group 867" transform="translate(134.674 21.65)">
      <path id="Path_2220" data-name="Path 2220" class="cls-6" d="M388.119,88.508a5.242,5.242,0,0,1-2.076-.408,3.745,3.745,0,0,1-1.584-1.259h-.141a17.376,17.376,0,0,1,.141,1.872v4.629H382.7V77.1h1.443l.246,1.532h.07a4.111,4.111,0,0,1,1.584-1.328,5,5,0,0,1,2.076-.408,4.325,4.325,0,0,1,3.554,1.532,7.894,7.894,0,0,1,0,8.578A4.552,4.552,0,0,1,388.119,88.508Zm-.282-10.178a3.108,3.108,0,0,0-2.569.953,4.706,4.706,0,0,0-.809,3.03v.374a5.562,5.562,0,0,0,.809,3.37,3.109,3.109,0,0,0,2.6,1.021,2.783,2.783,0,0,0,2.358-1.191,5.473,5.473,0,0,0,.845-3.234,5.332,5.332,0,0,0-.845-3.234A2.852,2.852,0,0,0,387.838,78.33Z" transform="translate(-382.7 -72.373)"/>
      <path id="Path_2221" data-name="Path 2221" class="cls-6" d="M420.06,79.531H418.3V63.6h1.76Z" transform="translate(-405.772 -63.6)"/>
      <path id="Path_2222" data-name="Path 2222" class="cls-6" d="M437.288,88.3l-.352-1.6h-.07a4.581,4.581,0,0,1-1.724,1.43,5.607,5.607,0,0,1-2.147.374,3.952,3.952,0,0,1-2.71-.851,3.056,3.056,0,0,1-.985-2.451c0-2.281,1.865-3.438,5.63-3.574l1.971-.068v-.681a2.749,2.749,0,0,0-.6-1.94,2.489,2.489,0,0,0-1.865-.613,7.692,7.692,0,0,0-3.273.851l-.528-1.294a8.093,8.093,0,0,1,1.865-.715,8.408,8.408,0,0,1,2.041-.272,4.584,4.584,0,0,1,3.062.885,3.6,3.6,0,0,1,.985,2.859V88.3Zm-3.977-1.191a3.651,3.651,0,0,0,2.569-.885,3.152,3.152,0,0,0,.95-2.451V82.755l-1.76.068a6.373,6.373,0,0,0-3.026.647,1.85,1.85,0,0,0-.915,1.736,1.676,1.676,0,0,0,.563,1.4A2.349,2.349,0,0,0,433.312,87.112Z" transform="translate(-412.901 -72.373)"/>
      <path id="Path_2223" data-name="Path 2223" class="cls-6" d="M458.6,77.5h1.865L463,83.9a19.144,19.144,0,0,1,1.02,3.166h.07c.106-.34.282-.953.563-1.77.281-.851,1.267-3.438,2.886-7.761h1.9l-4.962,12.731a6.384,6.384,0,0,1-1.724,2.689,3.7,3.7,0,0,1-2.428.783,8.347,8.347,0,0,1-1.584-.17V92.205a7.252,7.252,0,0,0,1.3.136,2.633,2.633,0,0,0,2.569-1.974l.633-1.6Z" transform="translate(-431.89 -72.768)"/>
    </g>
    <g id="Group_869" data-name="Group 869" transform="translate(54.616 20.424)">
      <path id="Path_2224" data-name="Path 2224" class="cls-6" d="M289.009,78.851a3.928,3.928,0,0,1,1.724,3.166c0,1.736-1.021,2.553-2.041,3.336a1.653,1.653,0,0,0-.669,1.157,1.326,1.326,0,0,0,.633,1.021l.88.647c1.056.885,2.041,1.668,2.041,3.3,0,2.213-2.217,4.425-6.37,4.425-3.519,0-5.208-1.634-5.208-3.37a3.32,3.32,0,0,1,1.865-2.859,10.893,10.893,0,0,1,4.645-1.089,2.317,2.317,0,0,1-.739-1.6,1.785,1.785,0,0,1,.246-.919,6.164,6.164,0,0,1-.774.034,3.755,3.755,0,0,1-4.012-3.676,4.054,4.054,0,0,1,1.548-3.132A6.814,6.814,0,0,1,287.109,78h5l-1.548.851h-1.548Zm-1.724,10.416a2.94,2.94,0,0,0-.563-.034,9.437,9.437,0,0,0-2.534.374,2.648,2.648,0,0,0-2.076,2.417c0,1.668,1.689,2.859,4.258,2.859,2.323,0,3.554-1.089,3.554-2.519C289.924,91.174,289.15,90.527,287.284,89.267Zm.7-4.459a2.288,2.288,0,0,0,.6-1.7c0-1.7-1.056-4.323-3.062-4.323a2.256,2.256,0,0,0-1.689.783,2.557,2.557,0,0,0-.528,1.736c0,1.566.95,4.187,3.026,4.187A2.5,2.5,0,0,0,287.988,84.808Z" transform="translate(-236.082 -71.873)"/>
      <path id="Path_2225" data-name="Path 2225" class="cls-6" d="M251.312,88.3a5.626,5.626,0,0,1-5.912-5.515c0-3.064,2.6-5.685,6.264-5.685a5.554,5.554,0,0,1,5.771,5.515A5.78,5.78,0,0,1,251.312,88.3Zm3.026-1.906a4.053,4.053,0,0,0,.739-2.587c0-2.076-1.021-5.991-4.012-5.991a3.542,3.542,0,0,0-2.182.783,3.458,3.458,0,0,0-1.126,2.859c0,2.315,1.2,6.127,4.117,6.127A3.021,3.021,0,0,0,254.338,86.393Z" transform="translate(-213.658 -71.279)"/>
      <path id="Path_2226" data-name="Path 2226" class="cls-6" d="M214.012,88.3a5.626,5.626,0,0,1-5.912-5.515c0-3.064,2.6-5.685,6.264-5.685a5.554,5.554,0,0,1,5.771,5.515A5.78,5.78,0,0,1,214.012,88.3Zm3.026-1.906a4.053,4.053,0,0,0,.739-2.587c0-2.076-1.021-5.991-4.012-5.991a3.542,3.542,0,0,0-2.182.783,3.458,3.458,0,0,0-1.126,2.859c0,2.315,1.2,6.127,4.117,6.127A3.022,3.022,0,0,0,217.038,86.393Z" transform="translate(-189.484 -71.279)"/>
      <path id="Path_2227" data-name="Path 2227" class="cls-6" d="M171.986,77.635l-3.484.783a27.675,27.675,0,0,1-4.012.408c-6.721,0-9.29-4.766-9.29-8.51,0-4.561,3.625-8.816,9.818-8.816a14.7,14.7,0,0,1,3.73.511,10.012,10.012,0,0,1,3.2,1.464l-2.006,1.872-.845.2.6-.953a7.033,7.033,0,0,0-5.208-2.213,6.619,6.619,0,0,0-6.757,6.944,8.445,8.445,0,0,0,8.622,8.578,7.779,7.779,0,0,0,3.1-.579V73.516l-3.66.2,1.935-1.021H172.9l-.633.579a.514.514,0,0,0-.246.374c-.035.2-.035.885-.035,1.123Z" transform="translate(-155.2 -60.989)"/>
      <path id="Path_2228" data-name="Path 2228" class="cls-6" d="M317.973,75.965c-.809-.068-.985-.2-.985-1.123V61.4c.106-.817.352-.953,1.091-1.4H314.63l-1.83.851h1.865V75.386c0,.477-.106.545-.669,1.259h4.293l.915-.511C318.782,76.067,318.4,76.033,317.973,75.965Z" transform="translate(-257.34 -60)"/>
      <path id="Path_2229" data-name="Path 2229" class="cls-6" d="M339.333,87.416a9.018,9.018,0,0,1-.809.408,6.015,6.015,0,0,1-2.358.443,5.128,5.128,0,0,1-3.2-.919,5.92,5.92,0,0,1-2.463-4.936A5.424,5.424,0,0,1,336.025,77a4.875,4.875,0,0,1,2.5.647,3.969,3.969,0,0,1,1.689,2.315l-5.666,2.247-1.865.136c.6,2.961,2.675,4.7,5,4.7a6.378,6.378,0,0,0,2.956-.817Zm-2.252-6.978c.457-.17.7-.306.7-.647a2.385,2.385,0,0,0-2.393-2.008,2.9,2.9,0,0,0-2.78,3.234c0,.408.035.817.07,1.225Z" transform="translate(-268.811 -71.213)"/>
      <g id="Group_868" data-name="Group 868" transform="translate(72.141 5.821)">
        <path id="Path_2230" data-name="Path 2230" class="cls-6" d="M360.939,77.27V78.8h-.211V77.27H360.2V77.1h1.232v.17Z" transform="translate(-360.2 -77.1)"/>
        <path id="Path_2231" data-name="Path 2231" class="cls-6" d="M366,78.8V77.236h0l-.493,1.566h-.141l-.493-1.566h0V78.8H364.7V77.1h.317l.457,1.362h0l.457-1.362h.317v1.7Z" transform="translate(-363.116 -77.1)"/>
      </g>
    </g>
    <g id="Group_870" data-name="Group 870" transform="translate(54.686 11.472)">
      <path id="Path_2232" data-name="Path 2232" class="cls-7" d="M160.186,38.766h-1.2a6.284,6.284,0,0,0-.352-1.362h-1.76a6.285,6.285,0,0,0-.352,1.362H155.4a20.4,20.4,0,0,1,.88-2.349A16.776,16.776,0,0,0,157.16,34H158.6a23.768,23.768,0,0,0,.809,2.383C159.9,37.847,160.186,38.629,160.186,38.766Zm-1.76-2.076a20.519,20.519,0,0,1-.633-2.042h-.07a16.756,16.756,0,0,1-.669,2.042Z" transform="translate(-155.4 -33.898)"/>
      <path id="Path_2233" data-name="Path 2233" class="cls-7" d="M175.347,38.7h-.95a9.9,9.9,0,0,0-1.056-1.6,8.415,8.415,0,0,1-1.232-2.076h-.07a11.4,11.4,0,0,1,.106,1.464c0,.613,0,1.328.07,2.213H171.3c.035-.749.07-1.6.07-2.485s-.035-1.634-.07-2.281h1.126a6.353,6.353,0,0,0,.95,1.532,7.425,7.425,0,0,1,1.126,1.94h.07a11.4,11.4,0,0,1-.106-1.464c0-.647-.035-1.328-.07-2.042h.95c-.035.613-.07,1.362-.07,2.281C175.312,37.134,175.312,37.951,175.347,38.7Z" transform="translate(-165.705 -33.832)"/>
      <path id="Path_2234" data-name="Path 2234" class="cls-7" d="M190.688,36.213a2.653,2.653,0,0,1-.7,1.8,2.458,2.458,0,0,1-1.935.783c-.387,0-.88,0-1.548-.034.035-.749.035-1.566.035-2.485,0-.885,0-1.634-.035-2.281h1.584a2.522,2.522,0,0,1,1.971.647A2.174,2.174,0,0,1,190.688,36.213Zm-1.056.17a1.771,1.771,0,0,0-.422-1.191,1.674,1.674,0,0,0-1.3-.477,2.608,2.608,0,0,0-.457.034c.035.477.035.987.035,1.532,0,.579,0,1.157.035,1.736a2.4,2.4,0,0,0,.493.034,1.485,1.485,0,0,0,1.2-.477A1.612,1.612,0,0,0,189.632,36.383Z" transform="translate(-175.556 -33.898)"/>
      <path id="Path_2235" data-name="Path 2235" class="cls-7" d="M205.377,38.766H204.25a7.749,7.749,0,0,0-.669-1.6.877.877,0,0,0-.739-.306h-.422c0,.613,0,1.259.035,1.906H201.4c.035-.749.035-1.566.035-2.485,0-.885,0-1.634-.035-2.281h1.795c1.161,0,1.724.374,1.724,1.157a1.265,1.265,0,0,1-.985,1.259v.068a1.186,1.186,0,0,1,.669.579A7.725,7.725,0,0,1,205.377,38.766Zm-1.408-3.37c0-.477-.317-.715-.985-.715a1.8,1.8,0,0,0-.633.068c.035.374.035.885.035,1.464h.352C203.582,36.213,203.969,35.94,203.969,35.4Z" transform="translate(-185.212 -33.898)"/>
      <path id="Path_2236" data-name="Path 2236" class="cls-7" d="M219.286,36.117a2.7,2.7,0,0,1-.7,1.872,2.378,2.378,0,0,1-1.76.749,2.213,2.213,0,0,1-1.654-.681,2.294,2.294,0,0,1-.669-1.736,2.7,2.7,0,0,1,.7-1.872,2.378,2.378,0,0,1,1.76-.749,2.213,2.213,0,0,1,1.654.681A2.294,2.294,0,0,1,219.286,36.117Zm-1.021.1a1.9,1.9,0,0,0-.387-1.225,1.3,1.3,0,0,0-.985-.477,1.287,1.287,0,0,0-.95.477,1.9,1.9,0,0,0-.387,1.225,1.74,1.74,0,0,0,.422,1.225,1.3,1.3,0,0,0,.985.477,1.287,1.287,0,0,0,.95-.477A2.294,2.294,0,0,0,218.265,36.219Z" transform="translate(-193.702 -33.7)"/>
      <path id="Path_2237" data-name="Path 2237" class="cls-7" d="M232.256,38.766H231.2c.035-.749.035-1.6.035-2.485s0-1.634-.035-2.281h1.056c-.035.613-.035,1.362-.035,2.281S232.221,38.017,232.256,38.766Z" transform="translate(-204.526 -33.898)"/>
      <path id="Path_2238" data-name="Path 2238" class="cls-7" d="M242.088,36.213a2.653,2.653,0,0,1-.7,1.8,2.458,2.458,0,0,1-1.935.783c-.387,0-.88,0-1.548-.034.035-.749.035-1.566.035-2.485,0-.885,0-1.634-.035-2.281h1.584a2.522,2.522,0,0,1,1.971.647A2.174,2.174,0,0,1,242.088,36.213Zm-1.056.17a1.771,1.771,0,0,0-.422-1.191,1.674,1.674,0,0,0-1.3-.477,2.608,2.608,0,0,0-.457.034c.035.477.035.987.035,1.532,0,.579,0,1.157.035,1.736a2.4,2.4,0,0,0,.493.034,1.485,1.485,0,0,0,1.2-.477A1.612,1.612,0,0,0,241.032,36.383Z" transform="translate(-208.868 -33.898)"/>
      <path id="Path_2239" data-name="Path 2239" class="cls-7" d="M261.586,38.766h-1.2a6.284,6.284,0,0,0-.352-1.362h-1.76a6.286,6.286,0,0,0-.352,1.362H256.8a20.4,20.4,0,0,1,.88-2.349A16.779,16.779,0,0,0,258.56,34H260a23.767,23.767,0,0,0,.809,2.383A18.66,18.66,0,0,1,261.586,38.766Zm-1.724-2.076a20.521,20.521,0,0,1-.633-2.042h-.07a16.76,16.76,0,0,1-.669,2.042Z" transform="translate(-221.117 -33.898)"/>
      <path id="Path_2240" data-name="Path 2240" class="cls-7" d="M276.389,35.259a1.393,1.393,0,0,1-.669,1.294,3.119,3.119,0,0,1-1.654.408h-.246c0,.443,0,1.055.035,1.8H272.8c.035-.715.035-1.532.035-2.485,0-.885,0-1.634-.035-2.281h1.9a2.14,2.14,0,0,1,1.2.306A1.053,1.053,0,0,1,276.389,35.259Zm-.985.2c0-.511-.352-.783-1.091-.783a3.622,3.622,0,0,0-.563.068c.035.477.035.987.035,1.566H274C274.947,36.315,275.4,36.008,275.4,35.464Z" transform="translate(-231.486 -33.898)"/>
      <path id="Path_2241" data-name="Path 2241" class="cls-7" d="M289.189,35.259a1.393,1.393,0,0,1-.669,1.294,3.119,3.119,0,0,1-1.654.408h-.246c0,.443,0,1.055.035,1.8H285.6c.035-.715.035-1.532.035-2.485,0-.885,0-1.634-.035-2.281h1.9a2.14,2.14,0,0,1,1.2.306A.987.987,0,0,1,289.189,35.259Zm-.95.2c0-.511-.352-.783-1.091-.783a3.621,3.621,0,0,0-.563.068c.035.477.035.987.035,1.566h.211C287.782,36.315,288.239,36.008,288.239,35.464Z" transform="translate(-239.782 -33.898)"/>
      <path id="Path_2242" data-name="Path 2242" class="cls-7" d="M308.086,36.117a2.7,2.7,0,0,1-.7,1.872,2.258,2.258,0,0,1-1.76.749,2.213,2.213,0,0,1-1.654-.681,2.294,2.294,0,0,1-.669-1.736,2.7,2.7,0,0,1,.7-1.872,2.378,2.378,0,0,1,1.76-.749,2.213,2.213,0,0,1,1.654.681A2.294,2.294,0,0,1,308.086,36.117Zm-1.056.1a1.9,1.9,0,0,0-.387-1.225,1.3,1.3,0,0,0-.985-.477,1.287,1.287,0,0,0-.95.477,1.9,1.9,0,0,0-.387,1.225,1.74,1.74,0,0,0,.422,1.225,1.3,1.3,0,0,0,.985.477,1.287,1.287,0,0,0,.95-.477A2.024,2.024,0,0,0,307.03,36.219Z" transform="translate(-251.253 -33.7)"/>
      <path id="Path_2243" data-name="Path 2243" class="cls-7" d="M324.047,38.7h-.95a9.9,9.9,0,0,0-1.056-1.6,8.416,8.416,0,0,1-1.232-2.076h-.07a11.4,11.4,0,0,1,.106,1.464c0,.613,0,1.328.07,2.213H320c.035-.749.07-1.6.07-2.485s-.035-1.634-.07-2.281h1.126a6.352,6.352,0,0,0,.95,1.532,7.425,7.425,0,0,1,1.126,1.94h.07a11.4,11.4,0,0,1-.106-1.464c0-.647,0-1.328-.07-2.042h.95c-.035.613-.07,1.362-.07,2.281C323.977,37.134,324.012,37.951,324.047,38.7Z" transform="translate(-262.076 -33.832)"/>
    </g>
  </g>
  <g id="Group_877" data-name="Group 877" transform="translate(193 0)">
    <path id="Path_2244" data-name="Path 2244" d="M179.966,690.616A7.972,7.972,0,0,1,172,698.585H7.969A7.95,7.95,0,0,1,0,690.616V647.669A7.972,7.972,0,0,1,7.969,639.7H172.031A7.972,7.972,0,0,1,180,647.669v42.948Z" transform="translate(0 -639.7)"/>
    <g id="Group_873" data-name="Group 873" transform="translate(12.079 9.176)">
      <path id="Path_2245" data-name="Path 2245" class="cls-8" d="M69.852,714.149a31.908,31.908,0,0,1-2.622,4.933c-1.725,2.622-4.14,5.864-7.106,5.864-2.656.034-3.346-1.725-6.934-1.725-3.588.035-4.346,1.725-7,1.725-3-.035-5.278-2.967-7-5.554-4.795-7.279-5.278-15.834-2.346-20.387A10.564,10.564,0,0,1,45.36,693.9c3.174,0,5.174,1.725,7.8,1.725,2.553,0,4.105-1.725,7.762-1.725a10.434,10.434,0,0,1,7.8,4.105C61.849,701.731,62.953,711.527,69.852,714.149Z" transform="translate(-35.017 -684.379)"/>
      <g id="Group_872" data-name="Group 872" transform="translate(16.74)">
        <path id="Path_2246" data-name="Path 2246" class="cls-8" d="M89.911,672.889a8.774,8.774,0,0,0,1.966-6.589,9.472,9.472,0,0,0-6.209,3.346,8.319,8.319,0,0,0-2.035,6.416A8.2,8.2,0,0,0,89.911,672.889Z" transform="translate(-83.544 -666.3)"/>
      </g>
    </g>
    <g id="Group_876" data-name="Group 876" transform="translate(54.642 9.21)">
      <g id="Group_874" data-name="Group 874" transform="translate(0 14.109)">
        <path id="Path_2247" data-name="Path 2247" class="cls-8" d="M165.265,708.3,158.4,728.48h3.139l2.035-6.209H170.2l2.1,6.209h3.243l-6.9-20.18Zm1.621,3.346c.241.9.483,1.828.793,2.863l1.863,5.347H164.3l1.828-5.381C166.4,713.578,166.645,712.646,166.886,711.646Z" transform="translate(-158.4 -707.955)"/>
        <path id="Path_2248" data-name="Path 2248" class="cls-8" d="M219.1,723.5a5.685,5.685,0,0,0-4.864,2.346l-.138-2H211.3v.241c.069,1.242.1,2.622.1,4.588v15.558h3.07v-7.244a5.307,5.307,0,0,0,4.174,1.794,6.254,6.254,0,0,0,4.622-1.966,8.3,8.3,0,0,0,2.035-5.864,8.173,8.173,0,0,0-1.759-5.347A5.573,5.573,0,0,0,219.1,723.5Zm-.759,2.518c2.725,0,3.933,2.518,3.933,5.036,0,3.208-1.552,5.209-4.071,5.209a3.69,3.69,0,0,1-3.588-2.829,4.048,4.048,0,0,1-.1-1v-2.449a3.3,3.3,0,0,1,.1-.759c0-.069.034-.172.034-.242A3.888,3.888,0,0,1,218.337,726.018Z" transform="translate(-193.052 -717.912)"/>
        <path id="Path_2249" data-name="Path 2249" class="cls-8" d="M264.762,723.5a5.685,5.685,0,0,0-4.864,2.346l-.138-2H257v.241c.069,1.242.1,2.622.1,4.588v15.558h3.07v-7.244a5.307,5.307,0,0,0,4.174,1.794,6.254,6.254,0,0,0,4.622-1.966,8.3,8.3,0,0,0,2.035-5.864,8.173,8.173,0,0,0-1.759-5.347A5.69,5.69,0,0,0,264.762,723.5ZM264,726.018c2.725,0,3.933,2.518,3.933,5.036,0,3.208-1.552,5.209-4.071,5.209a3.72,3.72,0,0,1-3.588-2.829,4.05,4.05,0,0,1-.1-1v-2.449a3.305,3.305,0,0,1,.1-.759c0-.069.035-.172.035-.242A3.888,3.888,0,0,1,264,726.018Z" transform="translate(-222.987 -717.912)"/>
        <path id="Path_2250" data-name="Path 2250" class="cls-8" d="M322.713,716.2c-2.863-1.1-3.76-1.966-3.76-3.588,0-1.345,1.069-2.725,3.484-2.725a7.076,7.076,0,0,1,3.588.9l.276.172.862-2.553-.172-.1a8.736,8.736,0,0,0-4.45-1c-3.9,0-6.623,2.311-6.623,5.588,0,2.656,1.69,4.519,5.347,5.83,2.587.966,3.553,1.966,3.553,3.657,0,1.932-1.483,3.1-3.9,3.1a8.429,8.429,0,0,1-4.415-1.242l-.276-.172-.828,2.622.138.1a10.515,10.515,0,0,0,5.174,1.311c5.243,0,7.106-3.208,7.106-5.933C327.853,719.408,326.37,717.649,322.713,716.2Z" transform="translate(-261.241 -707.3)"/>
        <path id="Path_2251" data-name="Path 2251" class="cls-8" d="M357.509,714.4l-3,.931v2.553H352.3v2.449h2.208v7.486a5.624,5.624,0,0,0,1.069,3.864,3.893,3.893,0,0,0,2.967,1.173,6.982,6.982,0,0,0,2.346-.379l.172-.069-.138-2.449-.276.1a5.081,5.081,0,0,1-1.414.172c-1.173,0-1.69-.759-1.69-2.518v-7.382h3.691v-2.449h-3.691V714.4Z" transform="translate(-285.412 -711.951)"/>
        <path id="Path_2252" data-name="Path 2252" class="cls-8" d="M386.344,723.5c-4.278,0-7.244,3.174-7.244,7.762,0,4.415,2.9,7.52,7.037,7.52h.034c3.484,0,7.244-2.449,7.244-7.8a7.767,7.767,0,0,0-1.932-5.416A7.077,7.077,0,0,0,386.344,723.5Zm-.1,2.415c2.76,0,4,2.691,4,5.174,0,3.07-1.69,5.278-4.07,5.278h-.034c-2.311,0-4-2.173-4-5.209C382.17,728.571,383.412,725.915,386.241,725.915Z" transform="translate(-302.967 -717.912)"/>
        <path id="Path_2253" data-name="Path 2253" class="cls-8" d="M433.189,723.638l-.172-.034a2.872,2.872,0,0,0-.759-.1,4.354,4.354,0,0,0-3.829,2.449l-.1-2.139H425.6l.035.241c.069,1.207.1,2.553.1,4.381L425.7,738.4h3.07v-7.8c0-.414.034-.828.069-1.173a3.385,3.385,0,0,1,3.208-3.07c.31,0,.552.034.828.034l.31.034v-2.794Z" transform="translate(-333.427 -717.912)"/>
        <path id="Path_2254" data-name="Path 2254" class="cls-8" d="M454.4,723.4c-4.07,0-6.9,3.243-6.9,7.9,0,4.484,2.829,7.382,7.21,7.382a11.753,11.753,0,0,0,4.829-.931l.172-.069-.586-2.277-.241.1a9.3,9.3,0,0,1-3.829.69,4.275,4.275,0,0,1-4.588-4.415l9.866.034.035-.207a6.094,6.094,0,0,0,.1-1.276C460.47,727.126,458.884,723.4,454.4,723.4Zm-.207,2.346a2.937,2.937,0,0,1,2.242.862,4.287,4.287,0,0,1,1.035,2.829H450.5C450.812,727.677,451.915,725.746,454.192,725.746Z" transform="translate(-347.772 -717.846)"/>
      </g>
      <g id="Group_875" data-name="Group 875" transform="translate(0 0)">
        <path id="Path_2255" data-name="Path 2255" class="cls-8" d="M158.4,668.007a23.9,23.9,0,0,1,2.932-.207,6.706,6.706,0,0,1,4.312,1.173,4.19,4.19,0,0,1,1.518,3.45,4.93,4.93,0,0,1-1.518,3.726,7.049,7.049,0,0,1-4.691,1.38c-1,0-1.794-.035-2.518-.1v-9.417Zm1.414,8.452a8.156,8.156,0,0,0,1.38.069c2.932,0,4.519-1.483,4.519-4.036,0-2.277-1.414-3.691-4.312-3.691a8.808,8.808,0,0,0-1.621.138v7.52Z" transform="translate(-158.4 -667.317)"/>
        <path id="Path_2256" data-name="Path 2256" class="cls-8" d="M191.057,682.575a3.441,3.441,0,0,1-3.657-3.519,3.548,3.548,0,0,1,3.795-3.657,3.406,3.406,0,0,1,3.657,3.519,3.574,3.574,0,0,1-3.795,3.657Zm.034-.966a2.44,2.44,0,0,0,2.311-2.691,2.332,2.332,0,1,0-4.622.035,2.428,2.428,0,0,0,2.311,2.656Z" transform="translate(-177.396 -672.295)"/>
        <path id="Path_2257" data-name="Path 2257" class="cls-8" d="M212.583,675.735l1.035,3.484c.207.759.414,1.483.552,2.208h.035a22.277,22.277,0,0,1,.69-2.173l1.242-3.484h1.173l1.173,3.415c.276.793.517,1.552.69,2.242h.035c.138-.69.345-1.414.586-2.242l1.069-3.45h1.38l-2.449,6.865h-1.276l-1.173-3.277c-.276-.793-.483-1.449-.69-2.277h-.035a14.633,14.633,0,0,1-.69,2.277l-1.242,3.243h-1.276L211.1,675.7h1.483Z" transform="translate(-192.921 -672.492)"/>
        <path id="Path_2258" data-name="Path 2258" class="cls-8" d="M247.269,677.335a15.614,15.614,0,0,0-.069-1.863h1.242l.069,1.1h.035a2.95,2.95,0,0,1,2.518-1.276,2.6,2.6,0,0,1,2.691,2.932v4.1h-1.38V678.37c0-1.1-.448-2.035-1.759-2.035a1.981,1.981,0,0,0-1.863,1.276,1.611,1.611,0,0,0-.1.586v4.14h-1.38Z" transform="translate(-216.568 -672.23)"/>
        <path id="Path_2259" data-name="Path 2259" class="cls-8" d="M272.7,666.5h1.38v10.073H272.7Z" transform="translate(-233.271 -666.466)"/>
        <path id="Path_2260" data-name="Path 2260" class="cls-8" d="M285.457,682.575a3.441,3.441,0,0,1-3.657-3.519,3.548,3.548,0,0,1,3.795-3.657,3.406,3.406,0,0,1,3.657,3.519,3.574,3.574,0,0,1-3.795,3.657Zm.034-.966a2.44,2.44,0,0,0,2.311-2.691,2.332,2.332,0,1,0-4.622.035,2.428,2.428,0,0,0,2.311,2.656Z" transform="translate(-239.232 -672.295)"/>
        <path id="Path_2261" data-name="Path 2261" class="cls-8" d="M312.6,680.812a12.174,12.174,0,0,0,.1,1.656h-1.242l-.138-.862h-.035a2.908,2.908,0,0,1-2.346,1.035,2.08,2.08,0,0,1-2.346-1.966c0-1.656,1.621-2.553,4.588-2.553v-.138c0-.552-.172-1.587-1.725-1.587a3.842,3.842,0,0,0-2,.517l-.31-.828a5.429,5.429,0,0,1,2.518-.586c2.346,0,2.9,1.414,2.9,2.794v2.518Zm-1.345-1.828c-1.518-.034-3.243.207-3.243,1.552a1.158,1.158,0,0,0,1.276,1.207,1.886,1.886,0,0,0,1.863-1.138,1.73,1.73,0,0,0,.069-.414v-1.207Z" transform="translate(-255.477 -672.361)"/>
        <path id="Path_2262" data-name="Path 2262" class="cls-8" d="M335.941,666.435v8.279a13.6,13.6,0,0,0,.069,1.759h-1.242l-.069-1.207h-.034a2.861,2.861,0,0,1-2.587,1.345,3.286,3.286,0,0,1-3.277-3.484,3.432,3.432,0,0,1,3.415-3.691,2.641,2.641,0,0,1,2.311,1.035h.034V666.4h1.38Zm-1.38,6a1.519,1.519,0,0,0-.069-.552,1.982,1.982,0,0,0-2-1.414,2.331,2.331,0,0,0-2.277,2.622,2.263,2.263,0,0,0,2.242,2.553,2.041,2.041,0,0,0,2.035-1.483,2.68,2.68,0,0,0,.069-.552Z" transform="translate(-270.019 -666.4)"/>
        <path id="Path_2263" data-name="Path 2263" class="cls-8" d="M367.957,682.575a3.441,3.441,0,0,1-3.657-3.519,3.548,3.548,0,0,1,3.795-3.657,3.406,3.406,0,0,1,3.657,3.519,3.574,3.574,0,0,1-3.795,3.657Zm.035-.966a2.44,2.44,0,0,0,2.311-2.691,2.336,2.336,0,1,0-2.311,2.691Z" transform="translate(-293.273 -672.295)"/>
        <path id="Path_2264" data-name="Path 2264" class="cls-8" d="M390.769,677.335a15.607,15.607,0,0,0-.069-1.863h1.242l.069,1.1h.035a2.95,2.95,0,0,1,2.518-1.276,2.6,2.6,0,0,1,2.691,2.932v4.1h-1.38V678.37c0-1.1-.448-2.035-1.759-2.035a1.981,1.981,0,0,0-1.863,1.276,1.611,1.611,0,0,0-.1.586v4.14h-1.38Z" transform="translate(-310.566 -672.23)"/>
        <path id="Path_2265" data-name="Path 2265" class="cls-8" d="M425.953,671.1v1.656h2v.966h-2v3.691c0,.862.276,1.345,1.035,1.345a4.191,4.191,0,0,0,.793-.069l.069.966a4.829,4.829,0,0,1-1.242.172,2.077,2.077,0,0,1-1.483-.517,2.486,2.486,0,0,1-.552-1.794v-3.726H423.4v-.966h1.173v-1.276Z" transform="translate(-331.986 -669.479)"/>
        <path id="Path_2266" data-name="Path 2266" class="cls-8" d="M441.1,666.5h1.38v4.278h.034a2.068,2.068,0,0,1,1-.862,2.774,2.774,0,0,1,1.414-.345,2.59,2.59,0,0,1,2.656,2.932v4.07h-1.38V672.64c0-1.1-.448-2.035-1.759-2.035a1.988,1.988,0,0,0-1.863,1.242,1.486,1.486,0,0,0-.1.586v4.14H441.1Z" transform="translate(-343.58 -666.466)"/>
        <path id="Path_2267" data-name="Path 2267" class="cls-8" d="M466.08,679.129a2.315,2.315,0,0,0,2.587,2.38,5.847,5.847,0,0,0,2.1-.345l.241.862a6.607,6.607,0,0,1-2.553.448c-2.346,0-3.76-1.414-3.76-3.45a3.514,3.514,0,0,1,3.588-3.726,3.011,3.011,0,0,1,3.139,3.243,2.8,2.8,0,0,1-.034.586Zm4.036-.9a1.857,1.857,0,0,0-1.9-2.035,2.2,2.2,0,0,0-2.139,2.035Z" transform="translate(-359.039 -672.23)"/>
      </g>
    </g>
  </g>
</svg>
