<svg xmlns="http://www.w3.org/2000/svg" width="16.803" height="16.803" viewBox="0 0 16.803 16.803">
  <g id="phone-symbol-of-an-auricular-inside-a-circle" transform="translate(-0.001)">
    <path id="Path_2268" data-name="Path 2268" d="M8.4,0a8.4,8.4,0,1,0,8.4,8.4A8.4,8.4,0,0,0,8.4,0Zm4.436,12.259-.673.673a1.24,1.24,0,0,1-.483.195A7.934,7.934,0,0,1,3.677,5.1a1.252,1.252,0,0,1,.2-.461l.673-.673A1.124,1.124,0,0,1,5.6,3.719l.141.047a1.329,1.329,0,0,1,.768.812L6.845,5.82a1.218,1.218,0,0,1-.278,1.064l-.449.449a4.771,4.771,0,0,0,3.355,3.356l.449-.449a1.218,1.218,0,0,1,1.064-.279l1.242.34a1.331,1.331,0,0,1,.812.767l.047.144A1.125,1.125,0,0,1,12.839,12.259Z" fill="#fff"/>
  </g>
</svg>
