<svg id="Group_1265" data-name="Group 1265" xmlns="http://www.w3.org/2000/svg" viewBox="0 0 18.033 18">
  <defs>
    <style>
      .cls-1 {
        fill: #fe0000;
      }
    </style>
  </defs>
  <path id="Path_2398" data-name="Path 2398" class="cls-1" d="M17.156,7.031H15.469a.585.585,0,0,1-.591-.394.6.6,0,0,1,.141-.7l1.209-1.181a.969.969,0,0,0,.281-.647.814.814,0,0,0-.281-.647L14.709,1.941a.96.96,0,0,0-1.322,0L12.15,3.094a.6.6,0,0,1-.7.141.636.636,0,0,1-.394-.591V.956A.943.943,0,0,0,10.125,0H7.959a.936.936,0,0,0-.928.928V2.616a.585.585,0,0,1-.394.591.6.6,0,0,1-.7-.141L4.753,1.884a.96.96,0,0,0-1.322,0L1.913,3.4a.969.969,0,0,0-.281.647.814.814,0,0,0,.281.647L3.094,5.906a.6.6,0,0,1,.141.7A.636.636,0,0,1,2.644,7H.956A.985.985,0,0,0,0,7.959v2.166a.936.936,0,0,0,.928.928H2.616a.585.585,0,0,1,.591.394.6.6,0,0,1-.141.7L1.856,13.331a.969.969,0,0,0-.281.647.814.814,0,0,0,.281.647l1.519,1.519a.934.934,0,0,0,1.322,0l1.181-1.209a.6.6,0,0,1,.7-.141.636.636,0,0,1,.394.591v1.687A.936.936,0,0,0,7.9,18h2.222a.936.936,0,0,0,.928-.928V15.384a.585.585,0,0,1,.394-.591.6.6,0,0,1,.7.141l1.181,1.209a.96.96,0,0,0,1.322,0l1.519-1.519a.969.969,0,0,0,.281-.647.814.814,0,0,0-.281-.647L14.963,12.15a.6.6,0,0,1-.141-.7.636.636,0,0,1,.591-.394H17.1a.936.936,0,0,0,.928-.928V7.959A.856.856,0,0,0,17.156,7.031Zm.253,3.094a.252.252,0,0,1-.253.253H15.469a1.28,1.28,0,0,0-1.209.816,1.3,1.3,0,0,0,.281,1.434l1.209,1.181a.24.24,0,0,1,0,.366l-1.519,1.519a.24.24,0,0,1-.366,0l-1.181-1.209A1.25,1.25,0,0,0,11.25,14.2a1.28,1.28,0,0,0-.816,1.209V17.1a.252.252,0,0,1-.253.253H8.016a.252.252,0,0,1-.253-.253V15.413A1.28,1.28,0,0,0,6.947,14.2a1.642,1.642,0,0,0-.506-.113,1.323,1.323,0,0,0-.928.394L4.331,15.694a.24.24,0,0,1-.366,0L2.447,14.175a.24.24,0,0,1,0-.366l1.209-1.181a1.25,1.25,0,0,0,.281-1.434,1.28,1.28,0,0,0-1.209-.816H1.041a.252.252,0,0,1-.253-.253V7.959a.252.252,0,0,1,.253-.253H2.728a1.28,1.28,0,0,0,1.209-.816,1.3,1.3,0,0,0-.281-1.434L2.447,4.275a.24.24,0,0,1,0-.366L3.966,2.391a.24.24,0,0,1,.366,0L5.512,3.572a1.25,1.25,0,0,0,1.434.281,1.28,1.28,0,0,0,.816-1.209V.956A.252.252,0,0,1,8.016.7h2.109a.252.252,0,0,1,.253.253V2.644a1.28,1.28,0,0,0,.816,1.209,1.349,1.349,0,0,0,1.434-.281l1.181-1.181a.24.24,0,0,1,.366,0l1.519,1.519a.24.24,0,0,1,0,.366L14.484,5.456A1.25,1.25,0,0,0,14.2,6.891a1.28,1.28,0,0,0,1.209.816H17.1a.252.252,0,0,1,.253.253v2.166Z"/>
  <path id="Path_2399" data-name="Path 2399" class="cls-1" d="M24.409,21.4a3.009,3.009,0,1,0,3.009,3.009A3.013,3.013,0,0,0,24.409,21.4Zm0,5.372a2.334,2.334,0,1,1,2.334-2.334A2.329,2.329,0,0,1,24.409,26.772Z" transform="translate(-15.381 -15.381)"/>
</svg>
