<svg xmlns="http://www.w3.org/2000/svg" viewBox="0 0 20 20">
  <defs>
    <style>
      .cls-1 {
        fill: #fe0000;
      }

      .cls-2 {
        fill: #fff;
      }
    </style>
  </defs>
  <g id="Group_1112" data-name="Group 1112" transform="translate(-1555 -95)">
    <path id="Path_2206" data-name="Path 2206" class="cls-1" d="M8.667,7A6.8,6.8,0,0,0,2,12.833a10.619,10.619,0,0,0,6.667,2.5,10.619,10.619,0,0,0,6.667-2.5A6.8,6.8,0,0,0,8.667,7Z" transform="translate(1556.333 99.168)"/>
    <circle id="Ellipse_59" data-name="Ellipse 59" class="cls-1" cx="3.333" cy="3.333" r="3.333" transform="translate(1561.667 98.168)"/>
    <path id="Path_2304" data-name="Path 2304" class="cls-2" d="M10,0A10,10,0,1,0,20,10,10.029,10.029,0,0,0,10,0Zm0,3a2.946,2.946,0,0,1,3,3,2.946,2.946,0,0,1-3,3A2.946,2.946,0,0,1,7,6,2.946,2.946,0,0,1,10,3Zm0,14.2A7.3,7.3,0,0,1,4,14c0-2,4-3.1,6-3.1S16,12,16,14A7.3,7.3,0,0,1,10,17.2Z" transform="translate(1555 95)"/>
  </g>
</svg>
