<svg xmlns="http://www.w3.org/2000/svg" width="12.898" height="12.898" viewBox="0 0 12.898 12.898">
  <g id="youtube" transform="translate(0)" opacity="0.9">
    <path id="Combined_Shape" data-name="Combined Shape" d="M6.45,12.9A6.449,6.449,0,1,1,12.9,6.45,6.457,6.457,0,0,1,6.45,12.9ZM4.256,4.226a.98.98,0,0,0-.978.979V7.829a.98.98,0,0,0,.978.979h4.59a.98.98,0,0,0,.978-.979V5.2a.98.98,0,0,0-.978-.979ZM5.9,7.625h0V5.159L7.766,6.392,5.9,7.624Z" transform="translate(0)" fill="#607487"/>
  </g>
</svg>
