<svg xmlns="http://www.w3.org/2000/svg" viewBox="0 0 19.792 9.499">
  <defs>
    <style>
      .cls-1 {
        fill: #fe0000;
      }
    </style>
  </defs>
  <g id="Group_4242" data-name="Group 4242" transform="translate(0 -14.466)">
    <path id="Path_3175" data-name="Path 3175" class="cls-1" d="M6.405,23.151a2.016,2.016,0,1,0,2.016,2.016A2.016,2.016,0,0,0,6.405,23.151Zm0,2.625a.609.609,0,1,1,.608-.609A.61.61,0,0,1,6.405,25.776Z" transform="translate(-1.626 -3.218)"/>
    <path id="Path_3176" data-name="Path 3176" class="cls-1" d="M19.458,20.3l-.33-2.683a.987.987,0,0,0-1.034-.864l-.722.04-2.244-2.021a1.173,1.173,0,0,0-.786-.3H9.784a4.49,4.49,0,0,0-2.812.99L4.43,17.5l-3.42.854a.988.988,0,0,0-.748.957V20.3A.264.264,0,0,0,0,20.559v1.3a.336.336,0,0,0,.336.336h1.93c-.008-.084-.025-.164-.025-.249a2.536,2.536,0,0,1,5.073,0,2.475,2.475,0,0,1-.026.249h5.346c-.008-.084-.025-.164-.025-.249a2.536,2.536,0,1,1,5.072,0,2.3,2.3,0,0,1-.026.249h1.8a.336.336,0,0,0,.336-.336V20.633A.333.333,0,0,0,19.458,20.3ZM12.694,17l-6.358.322,1.217-.979a3.718,3.718,0,0,1,2.333-.822h2.809Zm1.057-.054V15.522h.414a.577.577,0,0,1,.388.149l1.3,1.168Z"/>
    <path id="Path_3177" data-name="Path 3177" class="cls-1" d="M22.877,23.151a2.016,2.016,0,1,0,2.016,2.016A2.016,2.016,0,0,0,22.877,23.151Zm0,2.625a.609.609,0,1,1,.609-.609A.61.61,0,0,1,22.877,25.776Z" transform="translate(-7.73 -3.218)"/>
  </g>
</svg>
