<svg xmlns="http://www.w3.org/2000/svg" width="21.645" height="15.319" viewBox="0 0 21.645 15.319">
  <g id="sports-car" transform="translate(0 -5.707)">
    <g id="Group_1222" data-name="Group 1222" transform="translate(0 5.707)">
      <path id="Path_2381" data-name="Path 2381" d="M21.52,10.447a.557.557,0,0,0-.43-.2H18.984a7.181,7.181,0,0,0-1.967-3.222c-2.663-1.752-9.726-1.752-12.389,0a7.217,7.217,0,0,0-1.967,3.222H.554a.555.555,0,0,0-.543.667l.312,1.512a.554.554,0,0,0,.543.442H1.49a3.742,3.742,0,0,0-.9,2.446A3.664,3.664,0,0,0,1.75,18.06c.008.007.017.012.024.019v2.115a.832.832,0,0,0,.831.831H4.548a.832.832,0,0,0,.831-.831v-.85H16.265v.85a.832.832,0,0,0,.831.831h1.943a.833.833,0,0,0,.831-.831V18.121a3.8,3.8,0,0,0,.243-5.259h.666a.552.552,0,0,0,.543-.442l.313-1.511A.559.559,0,0,0,21.52,10.447ZM5.541,8.409c2.123-1.4,8.44-1.4,10.562,0a6.853,6.853,0,0,1,1.429,2.7H4.113A6.854,6.854,0,0,1,5.541,8.409ZM3.055,15.517A1.635,1.635,0,1,1,4.69,17.153,1.635,1.635,0,0,1,3.055,15.517Zm13.921,1.635a1.635,1.635,0,1,1,1.635-1.635A1.636,1.636,0,0,1,16.976,17.153Z" transform="translate(0 -5.707)" fill="#8c37db"/>
    </g>
  </g>
</svg>
