<svg xmlns="http://www.w3.org/2000/svg" viewBox="0 0 15.686 14.092">
  <defs>
    <style>
      .cls-1 {
        fill: #fe0000;
      }
    </style>
  </defs>
  <g id="cheers" transform="translate(0 -26.001)">
    <g id="Group_4249" data-name="Group 4249" transform="translate(0 28.033)">
      <g id="Group_4248" data-name="Group 4248" transform="translate(0 0)">
        <path id="Path_3189" data-name="Path 3189" class="cls-1" d="M7.376,93.684a.307.307,0,0,0-.228-.289l-2.921-.77h0l-1.1-.29a.306.306,0,0,0-.339.135,8.9,8.9,0,0,0-1,2.3,4.283,4.283,0,0,0,.176,3.27A2.342,2.342,0,0,0,3.135,99.06L2.008,103.2l-1.624-.428a.306.306,0,0,0-.156.592l1.916.505,1.92.506a.306.306,0,0,0,.156-.592L2.6,103.354l1.126-4.137a2.41,2.41,0,0,0,.331.023c1.366,0,2.494-1.148,3.018-3.072A8.844,8.844,0,0,0,7.376,93.684Zm-.892,2.324c-.447,1.641-1.354,2.62-2.427,2.62a1.857,1.857,0,0,1-.473-.063,1.752,1.752,0,0,1-1.093-.834A3.091,3.091,0,0,1,2.2,95.8a7.2,7.2,0,0,0,1.161.092,13.179,13.179,0,0,0,1.662-.131,6.509,6.509,0,0,1,1.54-.077Q6.528,95.847,6.484,96.008Zm.193-.929a6.838,6.838,0,0,0-1.728.072,8.984,8.984,0,0,1-2.64.044q.03-.131.067-.266a8.262,8.262,0,0,1,.816-1.945l.487.128c-.088.17-.17.345-.233.487a.306.306,0,1,0,.56.249c.1-.222.2-.42.282-.576l2.477.653A8.34,8.34,0,0,1,6.677,95.079Z" transform="translate(0 -92.323)"/>
      </g>
    </g>
    <g id="Group_4252" data-name="Group 4252" transform="translate(8.307 28.033)">
      <g id="Group_4251" data-name="Group 4251">
        <g id="Group_4250" data-name="Group 4250">
          <path id="Path_3190" data-name="Path 3190" class="cls-1" d="M381.733,469.133h0l-1.9.5Z" transform="translate(-376.499 -457.589)"/>
          <path id="Path_3191" data-name="Path 3191" class="cls-1" d="M379.344,485.533l-.015,0Z" transform="translate(-376.015 -473.487)"/>
          <path id="Path_3192" data-name="Path 3192" class="cls-1" d="M278.529,102.986a.306.306,0,0,0-.374-.218l-1.624.428L275.4,99.059a2.342,2.342,0,0,0,1.174-1.022,4.283,4.283,0,0,0,.176-3.27,8.9,8.9,0,0,0-1-2.3.306.306,0,0,0-.339-.135l-4.022,1.061a.306.306,0,0,0-.228.289,8.884,8.884,0,0,0,.239,2.246c0,.01,0,.02.007.03.017.07.035.14.054.21.524,1.923,1.652,3.072,3.018,3.072h0a2.409,2.409,0,0,0,.33-.023l1.126,4.137-1.619.427a.306.306,0,1,0,.156.592l1.92-.506h0l1.916-.505A.306.306,0,0,0,278.529,102.986Zm-6.755-9.061,3.573-.942a8.261,8.261,0,0,1,.816,1.945q.079.288.127.561a4.114,4.114,0,0,0-.57-.014c-.033-.224-.081-.458-.123-.639a.306.306,0,0,0-.6.136c.047.2.083.393.108.554-.139.016-.279.034-.421.052a8.6,8.6,0,0,1-2.73.03A8.3,8.3,0,0,1,271.774,93.926Zm2.708,4.7h0c-1.018,0-1.886-.882-2.354-2.372a7.159,7.159,0,0,0,.976.066,12.782,12.782,0,0,0,1.662-.135,5.913,5.913,0,0,1,1.6-.07,2.881,2.881,0,0,1-.319,1.615,1.752,1.752,0,0,1-1.093.834A1.853,1.853,0,0,1,274.482,98.627Z" transform="translate(-271.161 -92.322)"/>
        </g>
      </g>
    </g>
    <g id="Group_4254" data-name="Group 4254" transform="translate(7.536 26.001)">
      <g id="Group_4253" data-name="Group 4253" transform="translate(0 0)">
        <path id="Path_3193" data-name="Path 3193" class="cls-1" d="M246.305,26a.306.306,0,0,0-.306.306v.8a.306.306,0,1,0,.613,0v-.8A.306.306,0,0,0,246.305,26Z" transform="translate(-245.999 -26.001)"/>
      </g>
    </g>
    <g id="Group_4256" data-name="Group 4256" transform="translate(5.874 26.66)">
      <g id="Group_4255" data-name="Group 4255" transform="translate(0 0)">
        <path id="Path_3194" data-name="Path 3194" class="cls-1" d="M192.724,48.355l-.406-.692a.306.306,0,0,0-.529.31l.406.692a.306.306,0,0,0,.529-.31Z" transform="translate(-191.747 -47.511)"/>
      </g>
    </g>
    <g id="Group_4258" data-name="Group 4258" transform="translate(8.792 26.66)">
      <g id="Group_4257" data-name="Group 4257" transform="translate(0 0)">
        <path id="Path_3195" data-name="Path 3195" class="cls-1" d="M287.865,47.555a.306.306,0,0,0-.419.109l-.406.692a.306.306,0,1,0,.529.31l.406-.692A.306.306,0,0,0,287.865,47.555Z" transform="translate(-286.998 -47.513)"/>
      </g>
    </g>
    <g id="Group_4260" data-name="Group 4260" transform="translate(11.917 29.483)">
      <g id="Group_4259" data-name="Group 4259">
        <path id="Path_3196" data-name="Path 3196" class="cls-1" d="M389.594,139.868v0a.306.306,0,0,0-.586.18l0,.006a.306.306,0,0,0,.584-.184Z" transform="translate(-388.995 -139.651)"/>
      </g>
    </g>
    <g id="Group_4262" data-name="Group 4262" transform="translate(3.063 29.922)">
      <g id="Group_4261" data-name="Group 4261">
        <circle id="Ellipse_119" data-name="Ellipse 119" class="cls-1" cx="0.306" cy="0.306" r="0.306"/>
      </g>
    </g>
  </g>
</svg>
