<svg xmlns="http://www.w3.org/2000/svg" viewBox="0 0 13.553 13.553">
  <defs>
    <style>
      .cls-1 {
        fill: #fe0000;
      }
    </style>
  </defs>
  <path id="Path_3186" data-name="Path 3186" class="cls-1" d="M41.43,47.686H40.388a.261.261,0,0,1-.184-.076l-2.346-2.346a.26.26,0,0,1-.076-.184V44.3H37a.26.26,0,0,1-.184-.076l-2.606-2.606a.261.261,0,0,1-.076-.184V40.388a.26.26,0,0,1,.076-.184L36.815,37.6A.26.26,0,0,1,37,37.521h.782v-.782a.259.259,0,0,1,.076-.184L40.2,34.209a.261.261,0,0,1,.184-.076H41.43a.261.261,0,0,1,.184.076l2.346,2.346a.26.26,0,0,1,.076.184v.782h.782A.26.26,0,0,1,45,37.6L47.609,40.2a.261.261,0,0,1,.076.184V41.43a.26.26,0,0,1-.076.184L45.263,43.96a.26.26,0,0,1-.184.076H44.3v.782a.259.259,0,0,1-.076.184l-2.606,2.606A.261.261,0,0,1,41.43,47.686Zm-.935-.521h.826l2.454-2.454v-.935a.261.261,0,0,1,.261-.261h.935l2.193-2.193V40.5L44.71,38.042h-.935a.261.261,0,0,1-.261-.261v-.935l-2.193-2.193H40.5L38.3,36.847v.935a.26.26,0,0,1-.261.261h-.934L34.653,40.5v.827l2.454,2.454h.934a.26.26,0,0,1,.261.261v.935Zm0,0" transform="translate(-34.132 -34.133)"/>
</svg>
