<svg xmlns="http://www.w3.org/2000/svg" width="210.461" height="219.565" viewBox="0 0 210.461 219.565">
  <g id="Group_4199" data-name="Group 4199" transform="translate(-865.366 -429.932)">
    <path id="Path_2311" data-name="Path 2311" d="M-.016,226.336s-2.343-95.113,46.757-72c0,0,46.651-72.053,125.095,12.3,50.326,54.107-6.657,105.444-21.142,97.4C150.8,264.04,4.351,342.964-.016,226.336Z" transform="translate(883.622 359.355)" fill="#eedbff"/>
    <g id="Group_1050" data-name="Group 1050" transform="translate(905.746 532.084)">
      <rect id="Rectangle_158" data-name="Rectangle 158" width="135.604" height="43.452" transform="translate(0 35.847)" fill="#fff" stroke="#8c37db" stroke-miterlimit="10" stroke-width="0.75"/>
      <rect id="Rectangle_159" data-name="Rectangle 159" width="51.235" height="58.604" transform="translate(42.214 20.694)" fill="#fff" stroke="#8c37db" stroke-miterlimit="10" stroke-width="0.75"/>
      <g id="Group_1048" data-name="Group 1048" transform="translate(6.426 44.572)">
        <rect id="Rectangle_160" data-name="Rectangle 160" width="28.948" height="10.141" fill="#d5b4f3" stroke="#8c37db" stroke-miterlimit="10" stroke-width="0.75"/>
        <rect id="Rectangle_161" data-name="Rectangle 161" width="28.948" height="10.141" transform="translate(0 16.096)" fill="#d5b4f3" stroke="#8c37db" stroke-miterlimit="10" stroke-width="0.75"/>
      </g>
      <rect id="Rectangle_162" data-name="Rectangle 162" width="28.948" height="10.141" transform="translate(53.298 26.177)" fill="#d5b4f3" stroke="#8c37db" stroke-miterlimit="10" stroke-width="0.75"/>
      <rect id="Rectangle_163" data-name="Rectangle 163" width="28.948" height="10.141" transform="translate(53.298 45.28)" fill="#d5b4f3" stroke="#8c37db" stroke-miterlimit="10" stroke-width="0.75"/>
      <rect id="Rectangle_164" data-name="Rectangle 164" width="28.948" height="10.141" transform="translate(53.298 64.382)" fill="#d5b4f3" stroke="#8c37db" stroke-miterlimit="10" stroke-width="0.75"/>
      <g id="Group_1049" data-name="Group 1049" transform="translate(100.641 44.572)">
        <rect id="Rectangle_165" data-name="Rectangle 165" width="28.948" height="10.141" fill="#d5b4f3" stroke="#8c37db" stroke-miterlimit="10" stroke-width="0.75"/>
        <rect id="Rectangle_166" data-name="Rectangle 166" width="28.948" height="10.141" transform="translate(0 16.096)" fill="#d5b4f3" stroke="#8c37db" stroke-miterlimit="10" stroke-width="0.75"/>
      </g>
      <path id="Path_2312" data-name="Path 2312" d="M182.583,265.194H122.8L152.692,244.5Z" transform="translate(-85.126 -244.5)" fill="#fff" stroke="#8c37db" stroke-miterlimit="10" stroke-width="0.75"/>
    </g>
    <g id="Group_4198" data-name="Group 4198" transform="translate(-4 19)">
      <circle id="Ellipse_65" data-name="Ellipse 65" cx="4.717" cy="4.717" r="4.717" transform="translate(869.741 466.352)" fill="#fff" stroke="#8c37db" stroke-miterlimit="10" stroke-width="0.75"/>
      <rect id="Rectangle_167" data-name="Rectangle 167" width="7.075" height="7.075" transform="translate(909.832 419.775)" fill="#fff" stroke="#8c37db" stroke-miterlimit="10" stroke-width="0.75"/>
      <g id="Group_1051" data-name="Group 1051" transform="translate(1005.168 410.932)">
        <line id="Line_2" data-name="Line 2" y2="10.612" transform="translate(5.601)" fill="#fff" stroke="#8c37db" stroke-miterlimit="10" stroke-width="0.75"/>
        <line id="Line_3" data-name="Line 3" x2="11.202" transform="translate(0 5.306)" fill="#fff" stroke="#8c37db" stroke-miterlimit="10" stroke-width="0.75"/>
      </g>
      <g id="Group_1052" data-name="Group 1052" transform="translate(1045.731 466.529)">
        <line id="Line_4" data-name="Line 4" x1="7.488" y2="7.547" transform="translate(0.236 0.177)" fill="#fff" stroke="#8c37db" stroke-miterlimit="10" stroke-width="0.75"/>
        <line id="Line_5" data-name="Line 5" x2="7.9" y2="7.9" fill="#fff" stroke="#8c37db" stroke-miterlimit="10" stroke-width="0.75"/>
      </g>
      <path id="Path_2315" data-name="Path 2315" d="M351.9,160.174l2.83-1.474-.531,3.184,2.3,2.24-3.184.413-1.415,2.889-1.415-2.889-3.184-.413,2.3-2.24-.531-3.184Z" transform="translate(720.481 345.798)" fill="#fff" stroke="#8c37db" stroke-miterlimit="10" stroke-width="0.75"/>
    </g>
  </g>
</svg>
