<svg xmlns="http://www.w3.org/2000/svg" viewBox="0 0 25.533 29.055">
  <defs>
    <style>
      .cls-1 {
        fill: #fff;
      }
    </style>
  </defs>
  <g id="Group_2869" data-name="Group 2869" transform="translate(-11.913 -11.833)">
    <g id="Group_2862" data-name="Group 2862" transform="translate(11.913 11.833)">
      <g id="Group_2861" data-name="Group 2861">
        <path id="Path_3116" data-name="Path 3116" class="cls-1" d="M42.746,16.985a4.757,4.757,0,0,0-6.715.6C34.833,19.023,22,34.251,21.523,34.85a4.155,4.155,0,0,0-.959,1.918L19.005,43a1.773,1.773,0,0,0,.48,1.559,1.684,1.684,0,0,0,1.679.24l5.875-2.518a3.92,3.92,0,0,0,1.8-1.319c.839-.959,13.909-16.547,14.509-17.266A4.67,4.67,0,0,0,42.746,16.985ZM25.84,39.407l-2.878,1.319.719-3.118c.12-.48.36-.6.839-1.319l2.4,2.038A8.777,8.777,0,0,1,25.84,39.407Zm3.118-3.6-2.4-2.038L35.432,23.34l2.4,2.038ZM40.948,21.781l-1.079,1.2-2.4-2.038,1.079-1.2a1.576,1.576,0,1,1,2.4,2.038Z" transform="translate(-18.974 -15.873)"/>
      </g>
    </g>
  </g>
</svg>
