<svg xmlns="http://www.w3.org/2000/svg" viewBox="0 0 23.38 20.263">
  <defs>
    <style>
      .cls-1 {
        fill: #fff;
      }
    </style>
  </defs>
  <g id="photo-camera" transform="translate(0 -36.54)">
    <g id="Group_78" data-name="Group 78" transform="translate(0 36.54)">
      <path id="Path_2122" data-name="Path 2122" class="cls-1" d="M22.467,40.571a3,3,0,0,0-2.2-.913H17.535L16.914,38a2.262,2.262,0,0,0-.846-1.029,2.169,2.169,0,0,0-1.26-.432H8.573a2.169,2.169,0,0,0-1.26.432A2.262,2.262,0,0,0,6.466,38l-.621,1.656H3.117a3,3,0,0,0-2.2.913A3,3,0,0,0,0,42.775V53.686a3,3,0,0,0,.913,2.2,3,3,0,0,0,2.2.913H20.263a3.118,3.118,0,0,0,3.117-3.117V42.775A3,3,0,0,0,22.467,40.571ZM15.544,52.084a5.254,5.254,0,0,1-3.854,1.6,5.254,5.254,0,0,1-3.854-1.6,5.439,5.439,0,0,1,0-7.708,5.253,5.253,0,0,1,3.854-1.6,5.254,5.254,0,0,1,3.854,1.6,5.438,5.438,0,0,1,0,7.708Z" transform="translate(0 -36.54)"/>
      <path id="Path_2123" data-name="Path 2123" class="cls-1" d="M195.363,228.4a3.514,3.514,0,1,0,2.478,1.029A3.377,3.377,0,0,0,195.363,228.4Z" transform="translate(-183.673 -220.22)"/>
    </g>
  </g>
</svg>
