<svg id="Group_1224" data-name="Group 1224" xmlns="http://www.w3.org/2000/svg" width="20" height="19.286" viewBox="0 0 20 19.286">
  <path id="Path_2382" data-name="Path 2382" d="M12,43.2H24.857v3.571H12Z" transform="translate(-8.429 -30.343)" fill="#8c37db"/>
  <path id="Path_2383" data-name="Path 2383" d="M12,38.4H24.857v.714H12Z" transform="translate(-8.429 -26.971)" fill="#8c37db"/>
  <path id="Path_2384" data-name="Path 2384" d="M59.029,21.6A1.429,1.429,0,0,0,57.6,23.029V34.457h2.857V23.029A1.448,1.448,0,0,0,59.029,21.6Z" transform="translate(-40.457 -15.171)" fill="#8c37db"/>
  <path id="Path_2385" data-name="Path 2385" d="M1.429,21.6A1.429,1.429,0,0,0,0,23.029V34.457H2.857V23.029A1.429,1.429,0,0,0,1.429,21.6Z" transform="translate(0 -15.171)" fill="#8c37db"/>
  <path id="Path_2386" data-name="Path 2386" d="M8.629,7.857v2.857H21.486V7.857a2.148,2.148,0,0,1,1.429-2.024V.714A.724.724,0,0,0,22.2,0H7.914A.724.724,0,0,0,7.2.714V5.833A2.119,2.119,0,0,1,8.629,7.857Z" transform="translate(-5.057)" fill="#8c37db"/>
</svg>
