<svg xmlns="http://www.w3.org/2000/svg" viewBox="0 0 15.233 13.3">
  <defs>
    <style>
      .cls-1 {
        fill: #fe0000;
      }
    </style>
  </defs>
  <g id="shop" transform="translate(0 -31.05)">
    <g id="Group_4247" data-name="Group 4247" transform="translate(0 31.05)">
      <path id="Path_3187" data-name="Path 3187" class="cls-1" d="M251.3,263.75h-2.07a1.028,1.028,0,0,0-1.027,1.027v1.587a1.028,1.028,0,0,0,1.027,1.027h2.07a1.028,1.028,0,0,0,1.027-1.027v-1.587A1.028,1.028,0,0,0,251.3,263.75Zm.28,2.615a.281.281,0,0,1-.28.28h-2.07a.281.281,0,0,1-.28-.28v-1.587a.281.281,0,0,1,.28-.28h2.07a.281.281,0,0,1,.28.28Z" transform="translate(-240.474 -256.507)"/>
      <path id="Path_3188" data-name="Path 3188" class="cls-1" d="M15.233,35.408a.347.347,0,0,0-.05-.184L12.918,31.24a.376.376,0,0,0-.324-.19H2.636a.369.369,0,0,0-.324.19L.05,35.224a.378.378,0,0,0-.05.184,2.185,2.185,0,0,0,1.307,2v6.571a.375.375,0,0,0,.374.374H13.549a.375.375,0,0,0,.374-.374V37.453a.164.164,0,0,0,0-.04A2.191,2.191,0,0,0,15.233,35.408ZM2.854,31.8h9.522l1.771,3.116H1.086Zm7.987,3.86a1.436,1.436,0,0,1-2.826,0Zm-3.62,0a1.437,1.437,0,0,1-2.829,0Zm-6.449,0H3.6a1.437,1.437,0,0,1-2.829,0Zm5.5,7.944H4.127V39.572a.532.532,0,0,1,.532-.532H5.746a.532.532,0,0,1,.532.532V43.6Zm6.9,0H7.022V39.572a1.281,1.281,0,0,0-1.279-1.279H4.657a1.281,1.281,0,0,0-1.279,1.279v4.034H2.054V37.59c.044,0,.087,0,.131,0A2.182,2.182,0,0,0,4,36.628a2.183,2.183,0,0,0,3.623,0,2.177,2.177,0,0,0,3.617,0,2.182,2.182,0,0,0,1.812.965c.044,0,.084,0,.128,0V43.6Zm-.128-6.758a1.435,1.435,0,0,1-1.413-1.183h2.829A1.444,1.444,0,0,1,13.048,36.846Z" transform="translate(0 -31.05)"/>
    </g>
  </g>
</svg>
