<svg xmlns="http://www.w3.org/2000/svg" viewBox="0 0 13 8.667">
  <defs>
    <style>
      .cls-1 {
        fill: #fe0000;
      }
    </style>
  </defs>
  <g id="table" transform="translate(0 -85.333)">
    <g id="Group_4241" data-name="Group 4241" transform="translate(0 85.333)">
      <g id="Group_4240" data-name="Group 4240">
        <path id="Path_3170" data-name="Path 3170" class="cls-1" d="M342.146,85.333a.813.813,0,0,1,.812.813v3.521h1.9a.813.813,0,0,1,0,1.625H343.5v2.167h.813a.271.271,0,1,1,0,.542h-2.167a.271.271,0,1,1,0-.542h.812V91.291h-.812a.813.813,0,0,1-.813-.812V86.146A.813.813,0,0,1,342.146,85.333Z" transform="translate(-341.333 -85.333)"/>
        <path id="Path_3171" data-name="Path 3171" class="cls-1" d="M.812,89.666h1.9V86.146a.813.813,0,1,1,1.625,0v4.333a.813.813,0,0,1-.812.813H2.708v2.167h.813a.271.271,0,1,1,0,.542H1.354a.271.271,0,1,1,0-.542h.813V91.291H.813a.813.813,0,0,1,0-1.625Z" transform="translate(8.667 -85.333)"/>
        <path id="Path_3172" data-name="Path 3172" class="cls-1" d="M109.722,151.73a1.837,1.837,0,0,1-2.046,0,1.2,1.2,0,0,0-.739-.231.271.271,0,0,1-.271-.271v-.812a1.084,1.084,0,0,1,1.083-1.083h5.417a1.084,1.084,0,0,1,1.083,1.083v.813a.271.271,0,0,1-.271.271,1.2,1.2,0,0,0-.737.231,1.833,1.833,0,0,1-2.043,0,1.322,1.322,0,0,0-.47-.205v4.308h1.083a.271.271,0,1,1,0,.542H109.1a.271.271,0,0,1,0-.542h1.083v-4.306A1.337,1.337,0,0,0,109.722,151.73Z" transform="translate(-103.958 -147.708)"/>
      </g>
    </g>
  </g>
</svg>
